<svg width="158" height="189" viewBox="0 0 158 189" fill="none" xmlns="http://www.w3.org/2000/svg">
<path d="M79 138.115C46.5413 138.115 19.75 111.75 19.75 78.6646C19.75 46.0959 46.5413 19.7308 79 19.7308C111.459 19.7308 138.25 46.0959 138.25 79.1816C138.25 111.75 111.459 138.115 79 138.115ZM153.26 90.8169C155.893 87.5995 158 83.3097 158 79.0198C157.473 74.7299 155.893 70.44 153.26 67.2226C152.207 65.6139 151.153 64.0052 150.627 62.3965C150.627 60.2516 150.627 58.6429 151.153 56.498C152.207 52.2081 152.207 47.9182 150.627 44.1646C148.52 40.4109 145.36 37.7298 141.147 36.1211C139.567 35.5848 137.987 33.9761 136.407 32.9037C135.353 31.295 134.827 29.6863 134.3 27.5413C133.773 23.2515 131.667 19.4978 128.507 16.2804C124.82 14.1355 120.607 12.5268 116.92 13.063C114.813 13.063 112.707 12.5268 111.127 11.9906C109.547 10.9181 108.493 9.30938 107.44 7.70068C104.807 3.94705 101.647 1.26588 97.4333 0.193409C93.22 -0.342825 89.0067 0.193409 85.32 2.33834C83.74 3.41081 81.6333 3.94705 79.5267 4.48328C77.42 3.94705 75.84 3.41081 73.7333 2.87458C70.0467 0.729642 65.8333 0.193409 61.62 0.729643C57.4067 1.80211 54.2467 4.48328 51.6133 8.23692C50.56 9.84562 48.98 10.9181 47.4 11.9906C45.2933 12.5268 43.1867 12.5268 41.6067 12.5268C37.3933 12.5268 33.18 13.5993 30.02 15.7442C26.3333 18.9616 24.7533 22.7152 23.7 27.0051C23.1733 29.15 22.6467 30.7587 21.5933 32.3674C20.54 33.4399 18.96 34.5124 16.8533 35.5848C13.1667 37.1935 9.48 40.4109 7.37333 44.1646C5.79333 47.9182 5.79333 52.2081 6.84667 56.498C7.37333 58.6429 7.37333 60.2516 7.37333 62.3965C6.84667 64.5415 5.79333 66.1502 4.74 67.2226C1.58 70.44 0 74.7299 0 79.0198C0.526667 83.3097 2.10667 87.5995 4.74 90.8169C5.79333 92.4256 6.84667 94.0343 7.37333 95.643C7.37333 97.788 7.37333 99.3967 6.84667 101.542C5.79333 105.831 5.79333 110.121 7.37333 113.875C9.48 117.629 12.64 120.31 16.8533 121.918C18.4333 122.46 20.0133 124.063 21.5933 125.141C22.6467 126.745 23.1733 128.353 23.7 130.504C24.2267 134.788 26.3333 138.547 29.4933 141.759C33.18 143.909 37.3933 145.513 41.08 144.977C43.1867 144.977 44.7667 144.977 46.8733 146.049C48.4533 147.121 50.0333 148.73 51.0867 149.803C53.72 153.556 56.88 156.237 61.0933 157.315C65.3067 157.846 69.52 157.315 73.2067 155.165C74.7867 154.093 76.8933 153.556 79 153.556C81.1067 154.093 82.6867 154.634 84.7933 155.165C87.9533 156.774 91.1133 157.315 94.2733 157.846C95.3267 157.846 95.8533 157.846 96.9067 157.315C101.12 156.237 104.28 153.556 106.913 149.803C107.967 148.194 109.547 147.121 111.127 146.049C113.233 145.513 114.813 144.977 116.92 144.977C121.133 144.977 125.347 143.909 128.507 141.759C131.667 138.547 133.773 134.788 134.3 130.504C134.827 128.353 135.353 126.745 136.407 125.141C137.987 124.063 139.567 122.46 141.147 121.918C144.833 120.31 148.52 117.629 150.627 113.875C152.207 110.121 152.207 105.295 151.153 101.542C150.627 99.3967 150.627 97.788 150.627 95.643C151.153 94.0343 152.207 92.4256 153.26 90.8169ZM79 32.8846C104.451 32.8846 125.083 53.4968 125.083 78.9231C125.083 104.349 104.451 124.962 79 124.962C53.549 124.962 32.9167 104.349 32.9167 78.9231C32.9167 53.4968 53.549 32.8846 79 32.8846Z" fill="#3F5D75"/>
<mask id="mask0_179_16838" style="mask-type:luminance" maskUnits="userSpaceOnUse" x="0" y="0" width="158" height="158">
<path d="M79 138.115C46.5413 138.115 19.75 111.75 19.75 78.6646C19.75 46.0959 46.5413 19.7308 79 19.7308C111.459 19.7308 138.25 46.0959 138.25 79.1816C138.25 111.75 111.459 138.115 79 138.115ZM153.26 90.8169C155.893 87.5995 158 83.3097 158 79.0198C157.473 74.7299 155.893 70.44 153.26 67.2226C152.207 65.6139 151.153 64.0052 150.627 62.3965C150.627 60.2516 150.627 58.6429 151.153 56.498C152.207 52.2081 152.207 47.9182 150.627 44.1646C148.52 40.4109 145.36 37.7298 141.147 36.1211C139.567 35.5848 137.987 33.9761 136.407 32.9037C135.353 31.295 134.827 29.6863 134.3 27.5413C133.773 23.2515 131.667 19.4978 128.507 16.2804C124.82 14.1355 120.607 12.5268 116.92 13.063C114.813 13.063 112.707 12.5268 111.127 11.9906C109.547 10.9181 108.493 9.30938 107.44 7.70068C104.807 3.94705 101.647 1.26588 97.4333 0.193409C93.22 -0.342825 89.0067 0.193409 85.32 2.33834C83.74 3.41081 81.6333 3.94705 79.5267 4.48328C77.42 3.94705 75.84 3.41081 73.7333 2.87458C70.0467 0.729642 65.8333 0.193409 61.62 0.729643C57.4067 1.80211 54.2467 4.48328 51.6133 8.23692C50.56 9.84562 48.98 10.9181 47.4 11.9906C45.2933 12.5268 43.1867 12.5268 41.6067 12.5268C37.3933 12.5268 33.18 13.5993 30.02 15.7442C26.3333 18.9616 24.7533 22.7152 23.7 27.0051C23.1733 29.15 22.6467 30.7587 21.5933 32.3674C20.54 33.4399 18.96 34.5124 16.8533 35.5848C13.1667 37.1935 9.48 40.4109 7.37333 44.1646C5.79333 47.9182 5.79333 52.2081 6.84667 56.498C7.37333 58.6429 7.37333 60.2516 7.37333 62.3965C6.84667 64.5415 5.79333 66.1502 4.74 67.2226C1.58 70.44 0 74.7299 0 79.0198C0.526667 83.3097 2.10667 87.5995 4.74 90.8169C5.79333 92.4256 6.84667 94.0343 7.37333 95.643C7.37333 97.788 7.37333 99.3967 6.84667 101.542C5.79333 105.831 5.79333 110.121 7.37333 113.875C9.48 117.629 12.64 120.31 16.8533 121.918C18.4333 122.46 20.0133 124.063 21.5933 125.141C22.6467 126.745 23.1733 128.353 23.7 130.504C24.2267 134.788 26.3333 138.547 29.4933 141.759C33.18 143.909 37.3933 145.513 41.08 144.977C43.1867 144.977 44.7667 144.977 46.8733 146.049C48.4533 147.121 50.0333 148.73 51.0867 149.803C53.72 153.556 56.88 156.237 61.0933 157.315C65.3067 157.846 69.52 157.315 73.2067 155.165C74.7867 154.093 76.8933 153.556 79 153.556C81.1067 154.093 82.6867 154.634 84.7933 155.165C87.9533 156.774 91.1133 157.315 94.2733 157.846C95.3267 157.846 95.8533 157.846 96.9067 157.315C101.12 156.237 104.28 153.556 106.913 149.803C107.967 148.194 109.547 147.121 111.127 146.049C113.233 145.513 114.813 144.977 116.92 144.977C121.133 144.977 125.347 143.909 128.507 141.759C131.667 138.547 133.773 134.788 134.3 130.504C134.827 128.353 135.353 126.745 136.407 125.141C137.987 124.063 139.567 122.46 141.147 121.918C144.833 120.31 148.52 117.629 150.627 113.875C152.207 110.121 152.207 105.295 151.153 101.542C150.627 99.3967 150.627 97.788 150.627 95.643C151.153 94.0343 152.207 92.4256 153.26 90.8169ZM79 32.8846C104.451 32.8846 125.083 53.4968 125.083 78.9231C125.083 104.349 104.451 124.962 79 124.962C53.549 124.962 32.9167 104.349 32.9167 78.9231C32.9167 53.4968 53.549 32.8846 79 32.8846Z" fill="white"/>
</mask>
<g mask="url(#mask0_179_16838)">
<path fill-rule="evenodd" clip-rule="evenodd" d="M0 0H158V157.846H0V0Z" fill="white"/>
</g>
<path fill-rule="evenodd" clip-rule="evenodd" d="M49.8263 72.0466V78.0619H44.2342V72.0466H41.5791V86.4057H44.2342V80.5858H49.8263V86.4057H52.4813V72.0466H49.8263Z" fill="#33475B"/>
<path fill-rule="evenodd" clip-rule="evenodd" d="M60.9786 81.764C60.9786 82.9623 59.9952 83.9338 58.7822 83.9338C57.5692 83.9338 56.5858 82.9623 56.5858 81.764V75.6138H54.0674V81.764C54.0678 84.3338 56.1769 86.4169 58.7783 86.4165C61.3793 86.4161 63.4875 84.3333 63.4879 81.764V75.6138H60.9786V81.764Z" fill="#33475B"/>
<path fill-rule="evenodd" clip-rule="evenodd" d="M79.6377 76.2474C79.6377 74.9868 80.4819 74.5872 81.4068 74.5872C82.1523 74.5872 83.1369 75.1474 83.7808 75.8272L85.4302 73.9074C84.6068 72.8074 82.9366 72.0466 81.5694 72.0466C78.8377 72.0466 76.8617 73.6272 76.8617 76.2474C76.8617 81.1088 82.8767 79.5667 82.8767 82.2872C82.8767 83.1262 82.052 83.8678 81.1076 83.8678C79.6182 83.8678 79.1356 83.1481 78.4513 82.3873L76.6211 84.2674C77.7918 85.6874 79.2357 86.4082 80.9658 86.4082C83.5611 86.4082 85.6488 84.8084 85.6488 82.3077C85.6488 76.9105 79.6338 78.5875 79.6338 76.2474" fill="#33475B"/>
<path fill-rule="evenodd" clip-rule="evenodd" d="M116.849 84.112C115.361 84.112 114.938 83.4759 114.938 82.5018V78.1903H117.251V76.0058H114.938V73.1235L112.385 74.2557V83.0377C112.385 85.2838 113.954 86.416 116.105 86.416C116.443 86.4221 116.78 86.3955 117.112 86.3364L117.735 84.0708C117.454 84.09 117.131 84.1093 116.849 84.1093" fill="#33475B"/>
<path fill-rule="evenodd" clip-rule="evenodd" d="M70.5491 83.9113C68.9686 83.9113 67.6873 82.6455 67.6873 81.0842C67.6873 79.5229 68.9686 78.2571 70.5491 78.2571C72.1296 78.2571 73.4109 79.5229 73.4109 81.0842C73.4109 82.6455 72.1296 83.9113 70.5491 83.9113ZM70.5647 75.6857C69.3172 75.6857 68.4469 76.043 67.6053 76.859V72.1326H65.083V80.8927C65.083 84.1722 67.483 86.4184 70.1796 86.4184C73.1715 86.4184 75.8031 84.1323 75.8031 81.0534C75.8031 78.0129 73.3809 75.687 70.5647 75.687" fill="#33475B"/>
<path fill-rule="evenodd" clip-rule="evenodd" d="M95.5632 80.8916C95.5632 82.4529 94.2819 83.7187 92.7014 83.7187C91.1209 83.7187 89.8396 82.4529 89.8396 80.8916C89.8396 79.3303 91.1209 78.0645 92.7014 78.0645C94.2819 78.0645 95.5632 79.3303 95.5632 80.8916ZM97.9515 80.9224C97.9515 77.8383 95.3251 75.5574 92.3281 75.5574C89.6315 75.5574 87.2314 77.8036 87.2314 81.0831V89.8484H89.7537V85.1155C90.5941 85.9303 91.4656 86.2888 92.7118 86.2888C95.5279 86.2888 97.9502 83.9641 97.9502 80.9224" fill="#33475B"/>
<path fill-rule="evenodd" clip-rule="evenodd" d="M105.231 83.6673C103.674 83.6673 102.411 82.4199 102.411 80.8812C102.411 79.3426 103.674 78.0954 105.231 78.0954C106.789 78.0954 108.051 79.3426 108.051 80.8812C108.051 82.4199 106.789 83.6673 105.231 83.6673ZM106.075 75.5176V73.0399C106.752 72.7279 107.186 72.0582 107.189 71.3205V71.2628C107.186 70.2114 106.324 69.3599 105.26 69.3571H105.201C104.137 69.3599 103.275 70.2114 103.272 71.2628V71.3205C103.275 72.0582 103.709 72.7279 104.386 73.0399V75.5176C103.433 75.6615 102.535 76.0515 101.784 76.6483L94.8975 71.3552C94.9466 71.1807 94.9727 71.0005 94.9756 70.8194C94.977 69.6321 94.0037 68.6684 92.8018 68.667C91.6 68.6655 90.6245 69.6269 90.623 70.8142C90.6215 72.0016 91.5948 72.9652 92.7967 72.9666C93.1747 72.9653 93.5457 72.8656 93.8725 72.6775L100.643 77.8846C99.3951 79.7447 99.4287 82.1705 100.728 83.9963L98.6673 86.0317C98.502 85.9798 98.3296 85.952 98.156 85.9496C97.1683 85.9496 96.3673 86.7406 96.3673 87.7165C96.3673 88.6924 97.1683 89.4834 98.156 89.4834C99.1438 89.4834 99.9446 88.6924 99.9446 87.7165C99.9424 87.545 99.9143 87.3748 99.8615 87.2114L101.9 85.1977C104.312 87.0178 107.761 86.5616 109.603 84.1786C111.446 81.7959 110.984 78.3886 108.572 76.5685C107.842 76.0175 106.983 75.6562 106.075 75.5176Z" fill="#FF7A59"/>
<path fill-rule="evenodd" clip-rule="evenodd" d="M71.714 115.789C57.378 128.684 27.7373 143.049 27.7373 143.049L27.74 143.053C28.5826 142.667 29.6949 142.75 30.9294 143.406C33.679 144.867 36.0241 148.621 36.1409 151.748C36.1957 153.218 35.744 154.292 34.9689 154.872C45.4742 148.548 79.3315 130.804 81.3384 125.054C83.3447 119.303 71.714 115.789 71.714 115.789Z" stroke="#33475C" stroke-width="5" stroke-linecap="round" stroke-linejoin="round"/>
<path fill-rule="evenodd" clip-rule="evenodd" d="M30.0316 142.484C30.4038 142.59 30.7848 142.746 31.1685 142.95C34.0689 144.492 36.5297 148.43 36.6536 151.729C36.6755 152.327 36.6196 152.881 36.4908 153.375C38.7339 152.067 41.6108 150.444 44.8264 148.63C58.5808 140.871 79.3678 129.146 80.8544 124.883C81.1828 123.942 81.1181 123.038 80.6538 122.121C79.0317 118.912 73.1679 116.812 71.8363 116.369C59.7517 127.135 36.9918 138.977 30.0316 142.484ZM34.9685 155.387C34.8035 155.387 34.6412 155.307 34.5425 155.158C34.3912 154.931 34.4444 154.622 34.6631 154.459C35.333 153.958 35.6762 153.002 35.629 151.767C35.5199 148.847 33.2576 145.227 30.6899 143.862C29.6506 143.309 28.6798 143.188 27.9523 143.523C27.7363 143.622 27.4759 143.557 27.3301 143.363C27.2386 143.24 27.2046 143.079 27.2408 142.93C27.277 142.78 27.3767 142.652 27.5149 142.585C27.8103 142.441 57.2553 128.104 71.3731 115.404C71.5058 115.285 71.6922 115.242 71.861 115.295C72.1746 115.39 79.5459 117.656 81.5671 121.654C82.1564 122.819 82.2413 124.02 81.8214 125.225C80.3293 129.5 63.7085 139.161 45.328 149.529C41.1854 151.866 37.608 153.883 35.2316 155.314C35.1499 155.364 35.0584 155.387 34.9685 155.387Z" stroke="#33475C" stroke-width="5" stroke-linecap="round" stroke-linejoin="round"/>
<path fill-rule="evenodd" clip-rule="evenodd" d="M71.7143 115.789C65.7413 121.162 57.1135 126.786 49.0771 131.524C49.6144 131.598 50.1927 131.784 50.8006 132.107C53.723 133.661 56.2156 137.651 56.34 140.974C56.3663 141.673 56.2802 142.283 56.1092 142.805C68.0508 135.91 80.1628 128.423 81.3386 125.054C83.345 119.303 71.7143 115.789 71.7143 115.789Z" stroke="#33475C" stroke-width="5" stroke-linecap="round" stroke-linejoin="round"/>
<path fill-rule="evenodd" clip-rule="evenodd" d="M50.3847 131.347C50.6029 131.434 50.821 131.536 51.0392 131.651C54.114 133.286 56.7205 137.46 56.8516 140.955C56.8614 141.243 56.8549 141.523 56.8307 141.794C63.4697 137.953 79.5928 128.498 80.8542 124.883C81.1825 123.942 81.1173 123.039 80.653 122.121C79.0315 118.912 73.1676 116.812 71.8361 116.369C66.8816 120.783 59.6714 125.818 50.3847 131.347ZM56.1093 143.32C55.9942 143.32 55.8791 143.281 55.7859 143.204C55.6209 143.069 55.5557 142.847 55.622 142.645C55.781 142.156 55.85 141.602 55.827 140.994C55.7108 137.88 53.2994 134.019 50.5606 132.564C50.0295 132.282 49.507 132.104 49.0077 132.035C48.7917 132.006 48.6173 131.842 48.5746 131.625C48.5313 131.41 48.6294 131.191 48.818 131.079C58.6929 125.258 66.2814 119.984 71.3723 115.404C71.5055 115.285 71.6919 115.242 71.8607 115.295C72.1743 115.39 79.5457 117.656 81.5668 121.654C82.1561 122.819 82.2411 124.02 81.8212 125.225C80.8142 128.109 72.9637 133.668 56.3642 143.252C56.2842 143.298 56.197 143.32 56.1093 143.32Z" stroke="#33475C" stroke-width="5" stroke-linecap="round" stroke-linejoin="round"/>
<path fill-rule="evenodd" clip-rule="evenodd" d="M31.3538 154.775C34.1034 156.237 36.2572 154.875 36.1405 151.748C36.0237 148.621 33.6786 144.867 30.9289 143.406C28.1793 141.944 26.0255 143.307 26.1422 146.433C26.259 149.56 28.6041 153.314 31.3538 154.775Z" stroke="#33475C" stroke-width="5" stroke-linecap="round" stroke-linejoin="round"/>
<path fill-rule="evenodd" clip-rule="evenodd" d="M28.8477 143.332C28.4305 143.332 28.0545 143.433 27.7338 143.635C26.9888 144.107 26.6051 145.093 26.6544 146.414C26.7635 149.334 29.0258 152.954 31.5935 154.319C32.7551 154.938 33.8038 155.016 34.5493 154.546C35.2948 154.074 35.678 153.088 35.6287 151.767C35.5196 148.847 33.2572 145.227 30.6896 143.862C30.0274 143.509 29.4008 143.332 28.8477 143.332ZM33.4392 155.881C32.7173 155.881 31.9284 155.664 31.1149 155.232C28.2145 153.689 25.7537 149.751 25.6299 146.452C25.5668 144.748 26.1199 143.438 27.1889 142.762C28.2584 142.087 29.671 142.155 31.1681 142.949C34.0691 144.492 36.5293 148.43 36.6532 151.729C36.7162 153.434 36.1631 154.743 35.0947 155.419C34.6063 155.728 34.0466 155.881 33.4392 155.881Z" stroke="#33475C" stroke-width="5" stroke-linecap="round" stroke-linejoin="round"/>
<path fill-rule="evenodd" clip-rule="evenodd" d="M33.281 150.802L35.6908 149.431C35.1207 147.71 34.0534 146.02 32.7536 144.77L29.7441 146.409C31.2407 145.656 33.281 150.802 33.281 150.802Z" stroke="#33475C" stroke-width="5" stroke-linecap="round" stroke-linejoin="round"/>
<path fill-rule="evenodd" clip-rule="evenodd" d="M31.1065 146.254C32.153 147.11 33.0888 149.046 33.5322 150.067L35.0639 149.196C34.5398 147.814 33.6874 146.466 32.6634 145.405L31.1065 146.254ZM33.2817 151.317C33.2247 151.317 33.1666 151.307 33.1118 151.288C32.9725 151.238 32.8607 151.131 32.8053 150.993C32.2013 149.47 30.9865 147.185 30.1768 146.875C30.0727 146.834 30.0157 146.849 29.974 146.87C29.7268 146.999 29.4192 146.897 29.2904 146.647C29.1616 146.397 29.2542 146.09 29.5004 145.956L32.5104 144.317C32.7078 144.208 32.9479 144.243 33.109 144.397C34.4658 145.702 35.5841 147.478 36.1778 149.268C36.2545 149.502 36.1564 149.759 35.9437 149.88L33.5339 151.251C33.456 151.295 33.3689 151.317 33.2817 151.317Z" stroke="#33475C" stroke-width="5" stroke-linecap="round" stroke-linejoin="round"/>
<path fill-rule="evenodd" clip-rule="evenodd" d="M50.8 132.107C50.1921 131.784 49.6143 131.597 49.0771 131.524L49.0798 131.522C47.5406 132.43 46.0232 133.306 44.5508 134.14C45.3226 133.957 46.2622 134.109 47.2846 134.652C50.0342 136.114 52.3793 139.868 52.4961 142.994C52.5274 143.821 52.3952 144.521 52.1398 145.081C53.451 144.334 54.7782 143.573 56.1092 142.805C56.2796 142.282 56.3657 141.672 56.3394 140.974C56.2155 137.651 53.7224 133.66 50.8 132.107Z" stroke="#33475C" stroke-width="5" stroke-linecap="round" stroke-linejoin="round"/>
<path fill-rule="evenodd" clip-rule="evenodd" d="M46.3376 133.714C46.7246 133.822 47.1231 133.983 47.5244 134.196C50.4248 135.738 52.8845 139.676 53.0089 142.974C53.0215 143.34 53.0067 143.689 52.9629 144.019C53.863 143.505 54.7697 142.984 55.6775 142.459C55.7975 142.018 55.8474 141.526 55.8271 140.993C55.7114 137.879 53.3 134.018 50.5613 132.564C50.0899 132.313 49.6255 132.145 49.1771 132.062C48.2206 132.626 47.2722 133.178 46.3376 133.714ZM52.14 145.597C52.0151 145.597 51.8912 145.55 51.7941 145.46C51.6297 145.309 51.582 145.07 51.6741 144.866C51.9071 144.355 52.0112 143.732 51.9838 143.013C51.8747 140.093 49.6135 136.473 47.0458 135.109C46.1693 134.641 45.3481 134.481 44.6678 134.641C44.4206 134.704 44.1651 134.567 44.073 134.328C43.9804 134.088 44.0774 133.817 44.2994 133.691C45.7691 132.858 47.2854 131.983 48.8208 131.077C48.9211 131.02 49.0352 130.997 49.1464 131.014C49.7648 131.099 50.4023 131.313 51.0393 131.651C54.1146 133.285 56.7212 137.459 56.8522 140.955C56.8791 141.685 56.793 142.362 56.5968 142.965C56.5567 143.086 56.4745 143.188 56.3649 143.251C55.0328 144.021 53.704 144.782 52.3922 145.529C52.3133 145.574 52.2272 145.597 52.14 145.597Z" stroke="#33475C" stroke-width="5" stroke-linecap="round" stroke-linejoin="round"/>
<path fill-rule="evenodd" clip-rule="evenodd" d="M33.2807 150.802C33.2807 150.802 31.2404 145.656 29.7438 146.409C28.2479 147.161 29.4034 152.28 34.4248 155.179C35.5293 154.743 36.2069 153.535 36.1406 151.748C36.1121 150.998 35.9498 150.213 35.6911 149.431L35.6905 149.431L33.2807 150.802Z" stroke="#33475C" stroke-width="5" stroke-linecap="round" stroke-linejoin="round"/>
<path fill-rule="evenodd" clip-rule="evenodd" d="M30.0573 146.849C30.0223 146.849 29.9965 146.859 29.9735 146.87C29.7833 146.966 29.6621 147.288 29.649 147.731C29.6062 149.257 30.878 152.434 34.4532 154.598C35.2546 154.156 35.68 153.141 35.6285 151.767C35.611 151.276 35.5287 150.749 35.3846 150.197L33.5334 151.25C33.4034 151.324 33.2494 151.335 33.1113 151.288C32.972 151.238 32.8602 151.131 32.8048 150.993C32.2007 149.469 30.986 147.185 30.1763 146.875C30.1275 146.856 30.0886 146.849 30.0573 146.849ZM34.4252 155.694C34.337 155.694 34.2487 155.671 34.1698 155.626C30.0042 153.221 28.5712 149.569 28.6255 147.702C28.6496 146.847 28.9659 146.223 29.5152 145.948C29.8309 145.787 30.1862 145.774 30.5414 145.912C31.8077 146.397 33.0093 148.864 33.5317 150.068L35.4388 148.982C35.5726 148.906 35.731 148.895 35.8752 148.95C36.0183 149.006 36.1279 149.122 36.1772 149.268C36.4645 150.134 36.6245 150.963 36.6536 151.729C36.7254 153.686 35.981 155.119 34.6122 155.66C34.5519 155.683 34.4883 155.694 34.4252 155.694Z" stroke="#33475C" stroke-width="5" stroke-linecap="round" stroke-linejoin="round"/>
<path fill-rule="evenodd" clip-rule="evenodd" d="M71.714 115.789C57.378 128.684 27.7373 143.049 27.7373 143.049L27.74 143.053C28.5826 142.667 29.6949 142.75 30.9294 143.406C33.679 144.867 36.0241 148.621 36.1409 151.748C36.1957 153.218 35.744 154.292 34.9689 154.872C45.4742 148.548 79.3315 130.804 81.3384 125.054C83.3447 119.303 71.714 115.789 71.714 115.789Z" fill="#EAF0F6"/>
<path fill-rule="evenodd" clip-rule="evenodd" d="M30.0316 142.484C30.4038 142.59 30.7848 142.746 31.1685 142.95C34.0689 144.492 36.5297 148.43 36.6536 151.729C36.6755 152.327 36.6196 152.881 36.4908 153.375C38.7339 152.067 41.6108 150.444 44.8264 148.63C58.5808 140.871 79.3678 129.146 80.8544 124.883C81.1828 123.942 81.1181 123.038 80.6538 122.121C79.0317 118.912 73.1679 116.812 71.8363 116.369C59.7517 127.135 36.9918 138.977 30.0316 142.484ZM34.9685 155.387C34.8035 155.387 34.6412 155.307 34.5425 155.158C34.3912 154.931 34.4444 154.622 34.6631 154.459C35.333 153.958 35.6762 153.002 35.629 151.767C35.5199 148.847 33.2576 145.227 30.6899 143.862C29.6506 143.309 28.6798 143.188 27.9523 143.523C27.7363 143.622 27.4759 143.557 27.3301 143.363C27.2386 143.24 27.2046 143.079 27.2408 142.93C27.277 142.78 27.3767 142.652 27.5149 142.585C27.8103 142.441 57.2553 128.104 71.3731 115.404C71.5058 115.285 71.6922 115.242 71.861 115.295C72.1746 115.39 79.5459 117.656 81.5671 121.654C82.1564 122.819 82.2413 124.02 81.8214 125.225C80.3293 129.5 63.7085 139.161 45.328 149.529C41.1854 151.866 37.608 153.883 35.2316 155.314C35.1499 155.364 35.0584 155.387 34.9685 155.387Z" fill="#33475C"/>
<path fill-rule="evenodd" clip-rule="evenodd" d="M71.7143 115.789C65.7413 121.162 57.1135 126.786 49.0771 131.524C49.6144 131.598 50.1927 131.784 50.8006 132.107C53.723 133.661 56.2156 137.651 56.34 140.974C56.3663 141.673 56.2802 142.283 56.1092 142.805C68.0508 135.91 80.1628 128.423 81.3386 125.054C83.345 119.303 71.7143 115.789 71.7143 115.789Z" fill="#EAF0F6"/>
<path fill-rule="evenodd" clip-rule="evenodd" d="M50.3847 131.347C50.6029 131.434 50.821 131.536 51.0392 131.651C54.114 133.286 56.7205 137.46 56.8516 140.955C56.8614 141.243 56.8549 141.523 56.8307 141.794C63.4697 137.953 79.5928 128.498 80.8542 124.883C81.1825 123.942 81.1173 123.039 80.653 122.121C79.0315 118.912 73.1676 116.812 71.8361 116.369C66.8816 120.783 59.6714 125.818 50.3847 131.347ZM56.1093 143.32C55.9942 143.32 55.8791 143.281 55.7859 143.204C55.6209 143.069 55.5557 142.847 55.622 142.645C55.781 142.156 55.85 141.602 55.827 140.994C55.7108 137.88 53.2994 134.019 50.5606 132.564C50.0295 132.282 49.507 132.104 49.0077 132.035C48.7917 132.006 48.6173 131.842 48.5746 131.625C48.5313 131.41 48.6294 131.191 48.818 131.079C58.6929 125.258 66.2814 119.984 71.3723 115.404C71.5055 115.285 71.6919 115.242 71.8607 115.295C72.1743 115.39 79.5457 117.656 81.5668 121.654C82.1561 122.819 82.2411 124.02 81.8212 125.225C80.8142 128.109 72.9637 133.668 56.3642 143.252C56.2842 143.298 56.197 143.32 56.1093 143.32Z" fill="#33475C"/>
<path fill-rule="evenodd" clip-rule="evenodd" d="M31.3538 154.775C34.1034 156.237 36.2572 154.875 36.1405 151.748C36.0237 148.621 33.6786 144.867 30.9289 143.406C28.1793 141.944 26.0255 143.307 26.1422 146.433C26.259 149.56 28.6041 153.314 31.3538 154.775Z" fill="#98ACC3"/>
<path fill-rule="evenodd" clip-rule="evenodd" d="M28.8477 143.332C28.4305 143.332 28.0545 143.433 27.7338 143.635C26.9888 144.107 26.6051 145.093 26.6544 146.414C26.7635 149.334 29.0258 152.954 31.5935 154.319C32.7551 154.938 33.8038 155.016 34.5493 154.546C35.2948 154.074 35.678 153.088 35.6287 151.767C35.5196 148.847 33.2572 145.227 30.6896 143.862C30.0274 143.509 29.4008 143.332 28.8477 143.332ZM33.4392 155.881C32.7173 155.881 31.9284 155.664 31.1149 155.232C28.2145 153.689 25.7537 149.751 25.6299 146.452C25.5668 144.748 26.1199 143.438 27.1889 142.762C28.2584 142.087 29.671 142.155 31.1681 142.949C34.0691 144.492 36.5293 148.43 36.6532 151.729C36.7162 153.434 36.1631 154.743 35.0947 155.419C34.6063 155.728 34.0466 155.881 33.4392 155.881Z" fill="#33475C"/>
<path fill-rule="evenodd" clip-rule="evenodd" d="M33.281 150.802L35.6908 149.431C35.1207 147.71 34.0534 146.02 32.7536 144.77L29.7441 146.409C31.2407 145.656 33.281 150.802 33.281 150.802Z" fill="#EAF0F6"/>
<path fill-rule="evenodd" clip-rule="evenodd" d="M31.1065 146.254C32.153 147.11 33.0888 149.046 33.5322 150.067L35.0639 149.196C34.5398 147.814 33.6874 146.466 32.6634 145.405L31.1065 146.254ZM33.2817 151.317C33.2247 151.317 33.1666 151.307 33.1118 151.288C32.9725 151.238 32.8607 151.131 32.8053 150.993C32.2013 149.47 30.9865 147.185 30.1768 146.875C30.0727 146.834 30.0157 146.849 29.974 146.87C29.7268 146.999 29.4192 146.897 29.2904 146.647C29.1616 146.397 29.2542 146.09 29.5004 145.956L32.5104 144.317C32.7078 144.208 32.9479 144.243 33.109 144.397C34.4658 145.702 35.5841 147.478 36.1778 149.268C36.2545 149.502 36.1564 149.759 35.9437 149.88L33.5339 151.251C33.456 151.295 33.3689 151.317 33.2817 151.317Z" fill="#33475C"/>
<path fill-rule="evenodd" clip-rule="evenodd" d="M50.8 132.107C50.1921 131.784 49.6143 131.597 49.0771 131.524L49.0798 131.522C47.5406 132.43 46.0232 133.306 44.5508 134.14C45.3226 133.957 46.2622 134.109 47.2846 134.652C50.0342 136.114 52.3793 139.868 52.4961 142.994C52.5274 143.821 52.3952 144.521 52.1398 145.081C53.451 144.334 54.7782 143.573 56.1092 142.805C56.2796 142.282 56.3657 141.672 56.3394 140.974C56.2155 137.651 53.7224 133.66 50.8 132.107Z" fill="#F6C364"/>
<path fill-rule="evenodd" clip-rule="evenodd" d="M46.3376 133.714C46.7246 133.822 47.1231 133.983 47.5244 134.196C50.4248 135.738 52.8845 139.676 53.0089 142.974C53.0215 143.34 53.0067 143.689 52.9629 144.019C53.863 143.505 54.7697 142.984 55.6775 142.459C55.7975 142.018 55.8474 141.526 55.8271 140.993C55.7114 137.879 53.3 134.018 50.5613 132.564C50.0899 132.313 49.6255 132.145 49.1771 132.062C48.2206 132.626 47.2722 133.178 46.3376 133.714ZM52.14 145.597C52.0151 145.597 51.8912 145.55 51.7941 145.46C51.6297 145.309 51.582 145.07 51.6741 144.866C51.9071 144.355 52.0112 143.732 51.9838 143.013C51.8747 140.093 49.6135 136.473 47.0458 135.109C46.1693 134.641 45.3481 134.481 44.6678 134.641C44.4206 134.704 44.1651 134.567 44.073 134.328C43.9804 134.088 44.0774 133.817 44.2994 133.691C45.7691 132.858 47.2854 131.983 48.8208 131.077C48.9211 131.02 49.0352 130.997 49.1464 131.014C49.7648 131.099 50.4023 131.313 51.0393 131.651C54.1146 133.285 56.7212 137.459 56.8522 140.955C56.8791 141.685 56.793 142.362 56.5968 142.965C56.5567 143.086 56.4745 143.188 56.3649 143.251C55.0328 144.021 53.704 144.782 52.3922 145.529C52.3133 145.574 52.2272 145.597 52.14 145.597Z" fill="#33475C"/>
<path fill-rule="evenodd" clip-rule="evenodd" d="M33.2807 150.802C33.2807 150.802 31.2404 145.656 29.7438 146.409C28.2479 147.161 29.4034 152.28 34.4248 155.179C35.5293 154.743 36.2069 153.535 36.1406 151.748C36.1121 150.998 35.9498 150.213 35.6911 149.431L35.6905 149.431L33.2807 150.802Z" fill="#CBD6E3"/>
<path fill-rule="evenodd" clip-rule="evenodd" d="M30.0573 146.849C30.0223 146.849 29.9965 146.859 29.9735 146.87C29.7833 146.966 29.6621 147.288 29.649 147.731C29.6062 149.257 30.878 152.434 34.4532 154.598C35.2546 154.156 35.68 153.141 35.6285 151.767C35.611 151.276 35.5287 150.749 35.3846 150.197L33.5334 151.25C33.4034 151.324 33.2494 151.335 33.1113 151.288C32.972 151.238 32.8602 151.131 32.8048 150.993C32.2007 149.469 30.986 147.185 30.1763 146.875C30.1275 146.856 30.0886 146.849 30.0573 146.849ZM34.4252 155.694C34.337 155.694 34.2487 155.671 34.1698 155.626C30.0042 153.221 28.5712 149.569 28.6255 147.702C28.6496 146.847 28.9659 146.223 29.5152 145.948C29.8309 145.787 30.1862 145.774 30.5414 145.912C31.8077 146.397 33.0093 148.864 33.5317 150.068L35.4388 148.982C35.5726 148.906 35.731 148.895 35.8752 148.95C36.0183 149.006 36.1279 149.122 36.1772 149.268C36.4645 150.134 36.6245 150.963 36.6536 151.729C36.7254 153.686 35.981 155.119 34.6122 155.66C34.5519 155.683 34.4883 155.694 34.4252 155.694Z" fill="#33475C"/>
<path fill-rule="evenodd" clip-rule="evenodd" d="M131.063 156.627H131.065V153.543C131.06 153.914 130.818 154.284 130.334 154.564L129.43 155.09L94.7116 134.922C93.7358 134.355 92.1384 134.355 91.1621 134.922L43.005 162.897L42.1005 162.372C41.6307 162.099 41.3923 161.742 41.3753 161.382L41.3682 161.382L41.3715 164.429L41.3725 164.429C41.3616 164.811 41.6017 165.195 42.1005 165.485L77.7229 186.178C78.6992 186.745 80.2961 186.745 81.2724 186.178L130.334 157.677C130.831 157.389 131.072 157.007 131.063 156.627Z" stroke="#33475C" stroke-width="5"/>
<path fill-rule="evenodd" clip-rule="evenodd" d="M41.8821 162.84L41.8843 164.428C41.8793 164.643 42.0509 164.86 42.3574 165.039L77.9803 185.732C78.8026 186.209 80.1944 186.211 81.0172 185.731L130.079 157.231C130.384 157.054 130.556 156.838 130.551 156.639V156.627L130.552 155.034L129.687 155.536C129.529 155.627 129.333 155.628 129.174 155.535L94.4564 135.367C93.6336 134.89 92.2418 134.889 91.4195 135.367L43.2619 163.343C43.104 163.436 42.9077 163.436 42.7499 163.343L41.8821 162.84ZM79.4982 187.121C78.7675 187.121 78.0373 186.955 77.4678 186.624L41.8448 165.931C41.2029 165.557 40.8433 165.004 40.8603 164.414L40.8564 161.383C40.8564 161.246 40.9107 161.114 41.0066 161.017C41.295 160.727 41.8678 160.947 41.887 161.358C41.8969 161.55 42.0685 161.758 42.3574 161.925L43.0059 162.302L90.9069 134.476C92.0461 133.812 93.8298 133.813 94.9684 134.476L129.431 154.495L130.079 154.118C130.378 153.945 130.55 153.732 130.554 153.536C130.557 153.254 130.785 153.027 131.066 153.027H131.069C131.351 153.03 131.578 153.26 131.578 153.543L131.576 156.627C131.585 157.21 131.227 157.754 130.591 158.124L81.5292 186.624C80.9602 186.955 80.2284 187.121 79.4982 187.121Z" stroke="#33475C" stroke-width="5"/>
<path fill-rule="evenodd" clip-rule="evenodd" d="M94.7126 131.809C93.7362 131.242 92.1394 131.242 91.1631 131.809L42.101 160.31C41.1252 160.877 41.1252 161.805 42.101 162.372L77.7234 183.066C78.6997 183.633 80.2971 183.633 81.2728 183.066L130.335 154.565C131.311 153.998 131.311 153.07 130.335 152.503L94.7126 131.809Z" stroke="#33475C" stroke-width="5"/>
<path fill-rule="evenodd" clip-rule="evenodd" d="M92.9384 131.897C92.3842 131.897 91.8305 132.017 91.4194 132.256L42.3572 160.755C42.0552 160.932 41.882 161.145 41.882 161.342C41.882 161.537 42.0552 161.749 42.3572 161.925L77.9802 182.619C78.8025 183.097 80.1948 183.097 81.0171 182.618L130.079 154.119C130.381 153.943 130.555 153.73 130.555 153.534C130.555 153.337 130.381 153.125 130.079 152.949L94.4563 132.256C94.0452 132.017 93.4915 131.897 92.9384 131.897ZM79.4981 184.008C78.7679 184.008 78.0372 183.842 77.4676 183.511L41.8452 162.818C41.2176 162.453 40.8574 161.915 40.8574 161.342C40.8574 160.768 41.2165 160.229 41.8452 159.864L90.9074 131.364C92.0459 130.7 93.8297 130.701 94.9688 131.364L130.591 152.057C131.219 152.421 131.579 152.96 131.579 153.534C131.579 154.108 131.219 154.646 130.591 155.011L81.5297 183.511C80.9601 183.842 80.2288 184.008 79.4981 184.008Z" stroke="#33475C" stroke-width="5"/>
<path fill-rule="evenodd" clip-rule="evenodd" d="M92.9375 135.54L123.912 153.534L79.4978 179.335L48.5234 161.341L92.9375 135.54Z" stroke="#33475C" stroke-width="5"/>
<path fill-rule="evenodd" clip-rule="evenodd" d="M49.5469 161.341L79.4972 178.74L122.887 153.534L92.9375 136.135L49.5469 161.341ZM79.4972 179.851C79.409 179.851 79.3202 179.828 79.2412 179.781L48.2663 161.787C48.1079 161.695 48.0098 161.525 48.0098 161.341C48.0098 161.157 48.1079 160.986 48.2663 160.895L92.6815 135.093C92.8394 135.001 93.0356 135.001 93.1935 135.093L124.167 153.088C124.326 153.18 124.424 153.35 124.424 153.534C124.424 153.718 124.326 153.889 124.167 153.98L79.7532 179.781C79.6743 179.828 79.5855 179.851 79.4972 179.851Z" stroke="#33475C" stroke-width="5"/>
<path fill-rule="evenodd" clip-rule="evenodd" d="M82.906 154.168H81.9439L82.0886 153.54L82.906 153.709V154.168ZM88.6942 149.968C86.8501 150.953 85.0192 152.006 83.2042 153.094C82.833 153.057 82.463 153.011 82.0996 152.935C82.1495 152.755 82.1928 152.574 82.2169 152.389C82.224 152.336 82.1588 152.317 82.1237 152.344C81.9554 152.47 81.826 152.642 81.7159 152.833C81.444 152.765 81.1704 152.706 80.9024 152.616C80.6436 152.53 80.5104 152.934 80.7692 153.02C81.0213 153.105 81.2614 153.208 81.4911 153.326C81.3869 153.637 81.3283 153.96 81.2888 154.258C79.345 155.465 77.4269 156.712 75.5642 157.997C75.5269 158.022 75.5554 158.085 75.5971 158.061C77.548 156.978 79.4398 155.794 81.3299 154.606C81.3678 154.641 81.4149 154.669 81.4653 154.672C82.0831 154.718 82.7009 154.764 83.3187 154.809C83.373 154.813 83.4163 154.796 83.4514 154.769C83.532 154.781 83.6191 154.749 83.6372 154.659C83.7238 154.233 83.7085 153.791 83.7227 153.357C83.7249 153.28 83.68 153.223 83.6208 153.183C85.3169 152.127 87.0222 151.086 88.7824 150.14C88.891 150.081 88.8038 149.909 88.6942 149.968Z" stroke="#33475C" stroke-width="5"/>
<path fill-rule="evenodd" clip-rule="evenodd" d="M77.1954 173.91C77.1071 173.91 77.0211 173.864 76.9734 173.781C76.9032 173.659 76.9454 173.501 77.0671 173.429L89.4297 166.247C89.5492 166.177 89.7071 166.218 89.78 166.342C89.8501 166.465 89.8079 166.623 89.6862 166.695L77.3237 173.876C77.2837 173.899 77.2393 173.91 77.1954 173.91Z" stroke="#33475C" stroke-width="5"/>
<path fill-rule="evenodd" clip-rule="evenodd" d="M102.34 159.304C102.252 159.304 102.166 159.258 102.118 159.175C102.048 159.052 102.09 158.894 102.212 158.822L114.567 151.646C114.685 151.576 114.844 151.616 114.917 151.741C114.986 151.864 114.945 152.022 114.823 152.093L102.468 159.27C102.428 159.293 102.384 159.304 102.34 159.304Z" stroke="#33475C" stroke-width="5"/>
<path fill-rule="evenodd" clip-rule="evenodd" d="M75.4376 172.644C75.3493 172.644 75.2633 172.598 75.2156 172.515C75.1454 172.392 75.1876 172.234 75.3093 172.162L87.7503 164.936C87.8703 164.865 88.0271 164.905 88.1005 165.031C88.1702 165.153 88.1285 165.311 88.0063 165.383L75.5659 172.61C75.5258 172.633 75.4814 172.644 75.4376 172.644Z" stroke="#33475C" stroke-width="5"/>
<path fill-rule="evenodd" clip-rule="evenodd" d="M100.659 157.992C100.571 157.992 100.485 157.946 100.437 157.863C100.367 157.741 100.409 157.582 100.531 157.511L112.886 150.335C113.005 150.265 113.163 150.304 113.236 150.429C113.306 150.552 113.264 150.71 113.142 150.781L100.788 157.958C100.748 157.981 100.703 157.992 100.659 157.992Z" stroke="#33475C" stroke-width="5"/>
<path fill-rule="evenodd" clip-rule="evenodd" d="M83.7053 146.873C83.2969 147.221 82.9746 147.703 82.672 148.189C82.6868 147.896 82.6852 147.602 82.6512 147.301C82.6292 147.111 82.3623 146.986 82.2559 147.193C81.9155 147.856 81.5734 148.518 81.2473 149.188C81.2813 148.815 81.3832 148.456 81.5225 148.08C81.5285 148.065 81.5066 148.053 81.4962 148.064C81.0455 148.556 80.9025 149.228 80.9288 149.882C80.9354 150.048 81.1568 150.118 81.2445 149.968C81.597 149.369 81.921 148.752 82.2422 148.135C82.2247 148.465 82.1803 148.792 82.0942 149.123C82.0273 149.378 82.359 149.497 82.4999 149.295C82.9954 148.584 83.6774 147.849 83.9663 147.026C84.0227 146.865 83.8133 146.781 83.7053 146.873Z" stroke="#33475C" stroke-width="5"/>
<path fill-rule="evenodd" clip-rule="evenodd" d="M68.1817 159.434C68.1515 159.581 68.1033 159.721 68.0676 159.866C67.998 159.764 67.9465 159.556 67.9273 159.186C68.0901 158.711 68.2529 158.236 68.4152 157.761C68.3373 158.319 68.2595 158.876 68.1817 159.434ZM65.4731 160.204C65.0872 161.009 64.9726 158.493 64.9726 158.493C65.6874 158.737 65.8585 159.399 65.4731 160.204ZM78.8876 150.031C78.8016 150.146 77.3566 152.048 77.2968 151.95C77.1707 151.744 76.8193 151.766 76.7618 152.021C76.3797 153.713 76.2098 151.805 76.1012 151.335C76.0464 151.097 75.7137 151.069 75.5963 151.268C75.3255 151.727 74.7313 153.489 74.3498 153.749C73.9063 154.053 74.6721 154.533 73.8592 153.823C73.6925 153.677 73.4809 153.748 73.402 153.944C73.1213 154.683 72.7979 155.401 72.4317 156.099C72.3396 155.549 72.2968 154.994 72.3034 154.436C72.2963 154.227 71.9986 154.05 71.8468 154.246C71.3841 154.842 70.9818 155.397 70.6512 156.083C70.489 156.419 69.9117 158.247 70.0729 156.74C70.1052 156.44 69.6217 156.381 69.5538 156.669C69.4123 157.267 69.2714 157.863 69.0752 158.446C69.0292 158.582 68.953 158.778 68.863 158.983C68.9721 158.176 69.027 157.438 69.0467 156.875C69.056 156.61 68.7167 156.486 68.5374 156.663C67.3342 157.854 67.071 159.362 67.7985 160.83C67.6762 161.198 67.543 161.562 67.3939 161.924C67.2317 162.317 67.1324 162.612 67.036 162.836L67.0393 162.837C67.0393 162.837 66.4121 164.524 65.3235 164.234C64.2967 163.96 63.9969 162.158 63.9656 161.951C63.964 161.94 63.9623 161.929 63.9607 161.918L63.9596 161.911C63.9278 161.683 63.9196 161.406 63.9196 161.056C63.8998 158.829 64.6991 158.731 64.6991 158.731C64.7089 159.416 64.8208 160.093 65.0647 160.852C65.1124 161 65.2686 161.063 65.4057 160.992C66.5974 160.369 66.4724 158.009 64.9748 157.689C64.9556 157.685 64.9397 157.687 64.9211 157.683C64.9386 157.414 64.9715 157.145 65.0362 156.874C65.0488 156.794 64.931 156.757 64.9129 156.839C64.8476 157.128 64.8071 157.398 64.7703 157.667C63.2765 157.571 63.2897 160.206 63.3708 161.13C63.475 162.322 63.9185 166.206 65.9226 165.256C67.184 164.658 67.9558 163.005 68.4196 161.244C68.4393 161.225 68.4623 161.213 68.476 161.186C69.0122 160.136 69.4266 159.106 69.7506 158.009C69.8147 158.124 69.8892 158.241 69.9846 158.37C70.1107 158.541 70.4111 158.55 70.4692 158.307C70.5525 157.957 71.2679 155.191 71.7953 155.278C71.7679 155.273 72.025 157.097 72.0129 157.019C72.0502 157.256 72.401 157.275 72.5063 157.084C72.6219 156.874 73.6689 154.302 74.0631 154.86C74.2029 155.058 74.4835 155.027 74.5652 154.795C74.6524 154.545 75.4034 152.238 75.6714 152.27C75.8112 152.287 76.0968 153.405 76.1681 153.617C76.2476 153.854 76.5529 153.898 76.6889 153.686C77.1307 152.996 77.3105 153.105 76.906 152.437C76.9805 152.56 77.1044 152.593 77.2371 152.573C78.278 152.415 78.8339 151.095 79.4057 150.336C79.6392 150.027 79.1173 149.723 78.8876 150.031Z" stroke="#33475C" stroke-width="5"/>
<path fill-rule="evenodd" clip-rule="evenodd" d="M96.9962 143.573C96.898 143.615 93.5103 144.265 93.0728 143.827C92.9901 143.744 92.8251 143.729 92.745 143.827C92.6507 143.942 91.84 145.043 91.7216 144.975C91.573 144.89 92.0012 142.598 92.0203 142.439C92.0467 142.219 91.7391 142.182 91.6383 142.335C91.3433 142.781 89.7114 145.438 89.4888 145.402C89.6785 145.433 89.4581 143.92 89.4494 143.856C89.4302 143.719 89.2131 143.663 89.1292 143.771C88.5838 144.475 88.0575 145.19 87.5779 145.942C86.6833 147.347 87.1777 146.846 87.511 145.463C87.7851 144.327 88.5778 142.767 87.7961 141.723C87.761 141.677 87.699 141.647 87.6442 141.683C86.8378 142.203 86.2732 142.771 85.833 143.55L85.7793 143.621L85.7683 143.674C85.6949 143.812 85.616 143.941 85.5496 144.094C85.5151 144.173 85.6242 144.243 85.6669 144.164C85.6878 144.125 85.7135 144.074 85.7409 144.021C85.9323 143.657 86.4898 142.682 86.9689 142.598C87.8739 142.574 87.6546 143.732 87.5105 144.268L86.6142 147.604C86.5599 147.806 86.8483 147.934 86.9524 147.747C87.2583 147.202 87.568 146.662 87.9046 146.135C88.0362 145.922 88.1738 145.714 88.3179 145.51C88.5805 144.933 88.7899 145.111 88.9461 146.047C88.8995 146.224 89.1435 146.396 89.2718 146.238C89.9066 145.454 90.4723 144.545 91.1405 143.795C91.3576 143.551 91.4316 143.158 91.505 143.284C91.6613 143.554 91.2244 145.498 91.1833 145.821C91.1597 146.008 91.442 146.117 91.5588 145.977C92.0055 145.44 92.4561 144.69 93.1019 144.501C93.2198 144.466 93.7093 144.623 93.9143 144.6C95.0035 144.482 96.1728 144.463 97.1381 143.912C97.3136 143.812 97.193 143.491 96.9962 143.573Z" stroke="#33475C" stroke-width="5"/>
<path fill-rule="evenodd" clip-rule="evenodd" d="M92.0748 164.522C91.548 163.901 91.1275 163.406 91.2586 162.522C91.2679 162.462 91.1802 162.434 91.1665 162.497C90.9993 163.232 91.2147 164.313 91.9778 164.648C92.0606 164.685 92.1362 164.595 92.0748 164.522Z" stroke="#33475C" stroke-width="5"/>
<path fill-rule="evenodd" clip-rule="evenodd" d="M95.403 157.356C94.6141 156.925 92.8792 157.403 92.4017 158.168C92.3907 158.186 92.4094 158.21 92.4291 158.204C92.9197 158.048 93.3265 157.73 93.8423 157.616C94.3653 157.501 94.8696 157.623 95.3789 157.54C95.4655 157.526 95.4742 157.394 95.403 157.356Z" stroke="#33475C" stroke-width="5"/>
<path fill-rule="evenodd" clip-rule="evenodd" d="M96.5151 162.417C96.2755 162.522 96.0365 162.625 95.7969 162.729C96.076 162.018 96.6318 161.29 96.987 161.267C97.4634 161.811 97.3055 162.194 96.5151 162.417ZM96.1933 164.097C95.7016 164.088 95.576 163.729 95.6456 163.272C96.1341 163.155 96.6258 163.028 97.0528 162.82C96.765 163.447 96.4136 164.101 96.1933 164.097ZM91.8106 161.675C91.8106 161.675 90.5202 160.969 90.5202 160.076C90.5202 159.183 91.6286 159.159 91.6286 159.159C91.9509 159.21 92.2732 159.261 92.5956 159.311C92.6762 159.331 92.76 159.353 92.8433 159.374C92.6805 160.231 92.5676 161.085 92.5112 161.94C92.2436 161.91 91.997 161.838 91.8106 161.675ZM93.2506 159.572L93.8684 159.889C93.8684 159.889 93.5686 161.321 93.5593 161.94C93.5593 161.94 93.0522 162.023 92.9919 161.94C92.9919 161.94 93.0029 160.38 93.2506 159.572ZM94.3947 160.076C94.6858 160.336 94.8859 160.68 94.9116 161.156C94.9138 161.196 94.9314 161.224 94.956 161.244C94.6962 161.401 94.3942 161.55 94.068 161.675C94.0948 161.121 94.1995 160.593 94.3947 160.076ZM94.7335 159.346C94.956 158.947 95.6506 157.852 96.2969 158.371L96.3188 159.589C96.2245 160.127 95.9559 160.545 95.5113 160.842C95.4181 160.932 95.2904 161.028 95.1457 161.126C95.1172 160.6 94.8842 160.142 94.5427 159.757C94.6052 159.62 94.6578 159.482 94.7335 159.346ZM99.1792 163.378C99.1217 163.441 99.0685 163.476 99.017 163.498C99.0438 163.46 99.0597 163.412 99.0822 163.371C99.103 163.353 99.1244 163.337 99.1419 163.311C99.7976 162.34 99.8157 161.145 99.3519 160.081C99.0548 159.4 98.2807 158.15 97.4596 158.086C97.4256 158.084 97.3954 158.113 97.3856 158.143C97.3773 158.17 97.3686 158.197 97.3604 158.224C97.3543 158.244 97.373 158.257 97.39 158.254C97.823 158.178 98.7275 159.973 98.8552 160.292C99.2291 161.228 99.171 162.151 98.6442 163.019C98.6058 163.082 98.5992 163.143 98.6069 163.199C98.6014 163.205 98.5965 163.212 98.5916 163.218C98.3558 162.745 98.2385 161.879 98.1908 161.706C98.1837 161.681 98.164 161.672 98.1536 161.651C98.1722 161.603 98.1974 161.562 98.2128 161.511C98.557 160.342 97.4914 160.292 96.6872 160.75C96.1154 161.076 95.3343 161.964 94.9664 162.884C94.5915 162.897 94.2253 162.879 93.8482 162.974C93.4853 163.066 93.2271 163.236 93.033 163.449C93.0303 163.135 93.0275 162.822 93.039 162.51C93.2019 162.499 93.363 162.477 93.5258 162.447C93.5351 162.484 93.5406 162.522 93.5505 162.559C93.6261 162.847 94.1036 162.799 94.0795 162.487C94.0751 162.426 94.08 162.368 94.0773 162.307C96.1187 161.64 97.7748 159.532 96.3221 157.393C96.2525 157.291 96.099 157.222 95.9844 157.304C95.1852 157.882 94.5778 158.588 94.1623 159.388C93.9397 159.212 93.6914 159.067 93.4266 158.946C93.3597 158.778 93.1596 158.69 93.0237 158.777C92.3933 158.568 91.7157 158.514 91.1281 158.664C89.8728 158.985 89.6233 160.444 90.3678 161.401C90.9165 162.108 91.6757 162.442 92.481 162.509C92.4421 163.518 92.4684 164.531 92.5786 165.56C92.6175 165.919 93.1766 165.93 93.1465 165.56C93.1388 165.465 93.1454 165.384 93.1459 165.298C93.1618 165.312 93.1827 165.319 93.1986 165.332C93.2008 165.335 93.2024 165.337 93.2046 165.34L93.2051 165.341C93.221 165.36 93.2347 165.381 93.2506 165.401C93.3044 165.467 93.3723 165.493 93.4403 165.492C94.802 166.357 97.038 165.614 97.9458 164.406C97.9858 164.353 97.9096 164.287 97.8581 164.318C96.7382 165.004 94.7296 165.934 93.5801 164.801C93.5735 164.795 93.5658 164.796 93.5593 164.79C93.4913 164.673 93.4266 164.554 93.3669 164.433C93.6497 163.937 94.1705 163.673 94.7916 163.492C94.7165 163.935 94.7702 164.358 95.0339 164.697C95.9976 165.937 97.0813 164.291 97.7134 162.995C97.8044 163.471 97.9612 163.926 98.3668 164.139C98.9112 164.426 99.3486 164.203 99.6068 163.71C99.7455 163.445 99.3957 163.138 99.1792 163.378Z" stroke="#33475C" stroke-width="5"/>
<path fill-rule="evenodd" clip-rule="evenodd" d="M82.3448 162.603C82.12 162.184 81.9452 161.836 81.5587 161.561C81.5329 161.543 81.5072 161.544 81.4809 161.539C80.8779 160.789 80.299 160.018 79.8007 159.192C79.6417 158.929 79.2498 159.104 79.315 159.399C79.4986 160.231 79.7223 161.05 79.9657 161.863C79.673 161.481 79.3715 161.105 79.0897 160.714C79.0689 160.685 79.0228 160.71 79.0415 160.742C79.543 161.627 80.0057 162.524 80.4689 163.429C80.6109 163.705 81.0779 163.515 80.9738 163.215C80.703 162.432 80.4645 161.64 80.2425 160.843C80.7238 161.559 81.2249 162.261 81.7747 162.932C81.7752 162.933 81.7763 162.935 81.7774 162.936L81.778 162.936C81.7961 162.958 81.8109 162.982 81.829 163.003C82.0751 163.301 82.5153 162.921 82.3448 162.603Z" stroke="#33475C" stroke-width="5"/>
<path fill-rule="evenodd" clip-rule="evenodd" d="M89.5804 152.714C89.6018 153.189 89.6089 153.579 89.8386 153.996C89.8534 154.023 89.8775 154.034 89.8989 154.049C90.1182 154.989 90.3062 155.937 90.3983 156.898C90.4279 157.205 90.856 157.219 90.9251 156.925C91.1191 156.095 91.2715 155.26 91.4037 154.421C91.5018 154.893 91.6109 155.363 91.6958 155.839C91.7024 155.874 91.7545 155.871 91.7517 155.834C91.6821 154.819 91.6531 153.808 91.6262 152.79C91.618 152.48 91.1153 152.447 91.0791 152.763C90.9854 153.586 90.8577 154.403 90.7135 155.218C90.5896 154.363 90.441 153.512 90.236 152.667C90.236 152.666 90.2355 152.664 90.2355 152.662C90.2289 152.634 90.2251 152.606 90.2179 152.579C90.1253 152.203 89.5645 152.353 89.5804 152.714Z" stroke="#33475C" stroke-width="5"/>
<path fill-rule="evenodd" clip-rule="evenodd" d="M88.7967 155.686C88.6476 156.322 87.3934 156.66 86.9236 156.952C86.2959 157.342 85.9878 157.564 85.3059 157.733C84.733 157.874 84.3729 158.167 84.0845 158.56C83.9607 158.152 83.7134 157.837 83.2382 157.971C82.5266 158.171 82.6017 159.69 82.6812 160.622C82.4998 160.459 82.3435 160.27 82.2262 160.039C82.2109 160.012 82.1659 160.023 82.167 160.055C82.1906 160.691 82.3474 161.023 82.8221 161.448C83.0178 161.622 83.3429 161.507 83.3456 161.229C83.35 160.797 83.2853 160.229 83.3631 159.804C83.4103 159.545 83.6285 158.773 83.5342 159.625C83.4991 159.944 84.0073 160.077 84.1405 159.791C84.6448 158.7 86.2499 158.237 87.2991 157.599C88.0621 157.135 89.3147 156.885 89.4912 155.878C89.5707 155.427 88.9047 155.225 88.7967 155.686Z" stroke="#33475C" stroke-width="5"/>
<path fill-rule="evenodd" clip-rule="evenodd" d="M96.6196 150.274C96.4019 150.361 94.8506 151.586 94.9509 151.756C94.8303 151.552 94.6001 151.525 94.4384 151.7C94.303 151.848 94.1851 151.996 94.0809 152.153C94.0327 152.058 93.9839 151.963 93.9351 151.868C93.8551 151.712 93.6627 151.694 93.5503 151.826C93.1392 152.309 92.7763 152.851 92.5471 153.446C92.4748 153.277 92.4194 153.101 92.392 152.913C92.3832 152.873 92.3202 152.883 92.329 152.923C92.4079 153.278 92.4512 153.554 92.3904 153.929C92.352 154.166 92.6853 154.224 92.7779 154.026C93.0454 153.456 93.3025 152.925 93.6594 152.426C93.712 152.572 93.7641 152.718 93.8162 152.864C93.883 153.05 94.1944 153.097 94.2964 152.917C94.4241 152.692 94.565 152.492 94.7201 152.298C94.8846 152.371 95.0748 152.36 95.2842 152.225C95.8455 151.864 96.6163 151.155 96.898 150.543C96.9781 150.369 96.7785 150.21 96.6196 150.274Z" stroke="#33475C" stroke-width="5"/>
<path fill-rule="evenodd" clip-rule="evenodd" d="M49.7008 166.942L49.7019 169.9C49.7025 170.467 50.1015 171.162 50.59 171.446L54.7956 173.89C55.2835 174.174 55.682 173.942 55.6815 173.375L55.676 169.828L60.4282 150.361C60.7061 149.261 60.1267 148.811 59.1399 149.359L55.5724 151.34C54.5857 151.888 53.6856 152.419 53.5726 152.52C53.4597 152.62 53.0672 153.869 52.7843 154.967L50.1766 165.086C49.8938 166.184 49.6784 166.689 49.7008 166.942Z" stroke="#33475C" stroke-width="5"/>
<path fill-rule="evenodd" clip-rule="evenodd" d="M50.2127 166.943L50.2149 169.899C50.2149 170.284 50.5159 170.807 50.8453 170.999L55.0515 173.444C55.1047 173.475 55.1436 173.488 55.1677 173.493C55.1606 173.477 55.1688 173.437 55.1688 173.376L55.1639 169.828C55.1639 169.786 55.1688 169.745 55.1787 169.704L59.9309 150.238C60.0306 149.84 59.966 149.671 59.9446 149.65C59.9199 149.636 59.7385 149.616 59.3871 149.81L55.819 151.792C54.8745 152.316 54.1794 152.73 53.9601 152.875C53.845 153.14 53.549 154.057 53.2803 155.097L50.6732 165.216C50.557 165.663 50.4528 166.013 50.3706 166.29C50.2928 166.553 50.2116 166.826 50.2105 166.905L50.2127 166.943ZM55.1919 174.527C54.9797 174.527 54.7577 174.463 54.5406 174.337L50.3339 171.892C49.6925 171.521 49.1904 170.646 49.1904 169.899L49.1882 166.961C49.1739 166.719 49.2523 166.456 49.3894 165.994C49.4683 165.727 49.5692 165.389 49.6804 164.956L52.2881 154.837C52.5732 153.734 52.9673 152.37 53.2338 152.135C53.4815 151.913 55.25 150.931 55.3251 150.889L58.8932 148.908C59.7927 148.408 60.3321 148.647 60.5722 148.835C60.8123 149.022 61.1785 149.485 60.9242 150.488L56.1884 169.89L56.1934 173.374C56.1945 173.833 56.0064 174.207 55.6792 174.397C55.5312 174.484 55.3651 174.527 55.1919 174.527Z" stroke="#33475C" stroke-width="5"/>
<path fill-rule="evenodd" clip-rule="evenodd" d="M120.038 145.331L115.681 142.8C115.395 142.634 115.048 142.617 114.747 142.754C114.446 142.891 114.229 143.166 114.164 143.491L109.74 165.742C109.648 166.301 109.72 167.004 109.72 167.571V169.583C109.72 170.15 110.116 170.377 110.6 170.086L116.563 166.506C117.047 166.215 117.443 165.513 117.443 164.946V162.989C117.443 162.423 117.533 161.505 117.643 160.948L120.531 146.427C120.617 145.993 120.419 145.553 120.038 145.331Z" stroke="#33475C" stroke-width="5"/>
<path fill-rule="evenodd" clip-rule="evenodd" d="M115.169 143.178C115.097 143.178 115.025 143.193 114.958 143.225C114.808 143.292 114.699 143.43 114.667 143.593L110.243 165.843C110.19 166.168 110.205 166.6 110.22 167.018C110.227 167.21 110.233 167.396 110.233 167.571V169.583C110.233 169.636 110.239 169.674 110.245 169.698C110.258 169.684 110.293 169.67 110.337 169.644L116.3 166.063C116.631 165.865 116.931 165.333 116.931 164.946V162.989C116.931 162.394 117.025 161.433 117.141 160.848L120.029 146.327C120.072 146.109 119.973 145.889 119.782 145.778L115.425 143.247C115.346 143.201 115.258 143.178 115.169 143.178ZM110.2 170.728C110.032 170.728 109.871 170.687 109.727 170.605C109.397 170.417 109.208 170.044 109.208 169.583V167.571C109.208 167.408 109.203 167.234 109.196 167.055C109.18 166.586 109.163 166.102 109.236 165.658L113.662 143.391C113.759 142.902 114.086 142.489 114.536 142.285C114.986 142.078 115.512 142.106 115.939 142.355L120.295 144.886H120.296C120.866 145.218 121.163 145.878 121.033 146.528L118.146 161.049C118.043 161.57 117.956 162.459 117.956 162.989V164.946C117.956 165.702 117.469 166.563 116.825 166.948L110.863 170.529C110.642 170.66 110.415 170.728 110.2 170.728Z" stroke="#33475C" stroke-width="5"/>
<path fill-rule="evenodd" clip-rule="evenodd" d="M58.7321 150.794C58.7863 150.58 58.7913 150.365 58.7573 150.16L55.8196 151.791C55.6052 151.911 55.4079 152.021 55.2221 152.127L51.2763 167.702L51.2549 171.237L54.0237 172.847C54.015 171.916 53.9936 169.281 54.0418 169.309L58.7321 150.794Z" stroke="#33475C" stroke-width="5"/>
<path fill-rule="evenodd" clip-rule="evenodd" d="M116.19 143.691L111.903 165.283V168.703L115.272 166.679L115.315 163.885L119 145.324L116.19 143.691Z" stroke="#33475C" stroke-width="5"/>
<path fill-rule="evenodd" clip-rule="evenodd" d="M116.957 162.336L110.05 166.344L110.205 169.966L117.406 165.886L116.957 162.336Z" stroke="#33475C" stroke-width="5"/>
<path fill-rule="evenodd" clip-rule="evenodd" d="M55.4398 170.137L49.6992 166.593V171.216L55.6788 174.397L55.4398 170.137Z" stroke="#33475C" stroke-width="5"/>
<path fill-rule="evenodd" clip-rule="evenodd" d="M131.063 156.627H131.065V153.543C131.06 153.914 130.818 154.284 130.334 154.564L129.43 155.09L94.7116 134.922C93.7358 134.355 92.1384 134.355 91.1621 134.922L43.005 162.897L42.1005 162.372C41.6307 162.099 41.3923 161.742 41.3753 161.382L41.3682 161.382L41.3715 164.429L41.3725 164.429C41.3616 164.811 41.6017 165.195 42.1005 165.485L77.7229 186.178C78.6992 186.745 80.2961 186.745 81.2724 186.178L130.334 157.677C130.831 157.389 131.072 157.007 131.063 156.627Z" fill="#7B97B7"/>
<path fill-rule="evenodd" clip-rule="evenodd" d="M41.8821 162.84L41.8843 164.428C41.8793 164.643 42.0509 164.86 42.3574 165.039L77.9803 185.732C78.8026 186.209 80.1944 186.211 81.0172 185.731L130.079 157.231C130.384 157.054 130.556 156.838 130.551 156.639V156.627L130.552 155.034L129.687 155.536C129.529 155.627 129.333 155.628 129.174 155.535L94.4564 135.367C93.6336 134.89 92.2418 134.889 91.4195 135.367L43.2619 163.343C43.104 163.436 42.9077 163.436 42.7499 163.343L41.8821 162.84ZM79.4982 187.121C78.7675 187.121 78.0373 186.955 77.4678 186.624L41.8448 165.931C41.2029 165.557 40.8433 165.004 40.8603 164.414L40.8564 161.383C40.8564 161.246 40.9107 161.114 41.0066 161.017C41.295 160.727 41.8678 160.947 41.887 161.358C41.8969 161.55 42.0685 161.758 42.3574 161.925L43.0059 162.302L90.9069 134.476C92.0461 133.812 93.8298 133.813 94.9684 134.476L129.431 154.495L130.079 154.118C130.378 153.945 130.55 153.732 130.554 153.536C130.557 153.254 130.785 153.027 131.066 153.027H131.069C131.351 153.03 131.578 153.26 131.578 153.543L131.576 156.627C131.585 157.21 131.227 157.754 130.591 158.124L81.5292 186.624C80.9602 186.955 80.2284 187.121 79.4982 187.121Z" fill="#33475C"/>
<path fill-rule="evenodd" clip-rule="evenodd" d="M94.7126 131.809C93.7362 131.242 92.1394 131.242 91.1631 131.809L42.101 160.31C41.1252 160.877 41.1252 161.805 42.101 162.372L77.7234 183.066C78.6997 183.633 80.2971 183.633 81.2728 183.066L130.335 154.565C131.311 153.998 131.311 153.07 130.335 152.503L94.7126 131.809Z" fill="#98ACC3"/>
<path fill-rule="evenodd" clip-rule="evenodd" d="M92.9384 131.897C92.3842 131.897 91.8305 132.017 91.4194 132.256L42.3572 160.755C42.0552 160.932 41.882 161.145 41.882 161.342C41.882 161.537 42.0552 161.749 42.3572 161.925L77.9802 182.619C78.8025 183.097 80.1948 183.097 81.0171 182.618L130.079 154.119C130.381 153.943 130.555 153.73 130.555 153.534C130.555 153.337 130.381 153.125 130.079 152.949L94.4563 132.256C94.0452 132.017 93.4915 131.897 92.9384 131.897ZM79.4981 184.008C78.7679 184.008 78.0372 183.842 77.4676 183.511L41.8452 162.818C41.2176 162.453 40.8574 161.915 40.8574 161.342C40.8574 160.768 41.2165 160.229 41.8452 159.864L90.9074 131.364C92.0459 130.7 93.8297 130.701 94.9688 131.364L130.591 152.057C131.219 152.421 131.579 152.96 131.579 153.534C131.579 154.108 131.219 154.646 130.591 155.011L81.5297 183.511C80.9601 183.842 80.2288 184.008 79.4981 184.008Z" fill="#33475C"/>
<path fill-rule="evenodd" clip-rule="evenodd" d="M92.9375 135.54L123.912 153.534L79.4978 179.335L48.5234 161.341L92.9375 135.54Z" fill="#EAF0F6"/>
<path fill-rule="evenodd" clip-rule="evenodd" d="M49.5469 161.341L79.4972 178.74L122.887 153.534L92.9375 136.135L49.5469 161.341ZM79.4972 179.851C79.409 179.851 79.3202 179.828 79.2412 179.781L48.2663 161.787C48.1079 161.695 48.0098 161.525 48.0098 161.341C48.0098 161.157 48.1079 160.986 48.2663 160.895L92.6815 135.093C92.8394 135.001 93.0356 135.001 93.1935 135.093L124.167 153.088C124.326 153.18 124.424 153.35 124.424 153.534C124.424 153.718 124.326 153.889 124.167 153.98L79.7532 179.781C79.6743 179.828 79.5855 179.851 79.4972 179.851Z" fill="#33475C"/>
<path fill-rule="evenodd" clip-rule="evenodd" d="M82.906 154.168H81.9439L82.0886 153.54L82.906 153.709V154.168ZM88.6942 149.968C86.8501 150.953 85.0192 152.006 83.2042 153.094C82.833 153.057 82.463 153.011 82.0996 152.935C82.1495 152.755 82.1928 152.574 82.2169 152.389C82.224 152.336 82.1588 152.317 82.1237 152.344C81.9554 152.47 81.826 152.642 81.7159 152.833C81.444 152.765 81.1704 152.706 80.9024 152.616C80.6436 152.53 80.5104 152.934 80.7692 153.02C81.0213 153.105 81.2614 153.208 81.4911 153.326C81.3869 153.637 81.3283 153.96 81.2888 154.258C79.345 155.465 77.4269 156.712 75.5642 157.997C75.5269 158.022 75.5554 158.085 75.5971 158.061C77.548 156.978 79.4398 155.794 81.3299 154.606C81.3678 154.641 81.4149 154.669 81.4653 154.672C82.0831 154.718 82.7009 154.764 83.3187 154.809C83.373 154.813 83.4163 154.796 83.4514 154.769C83.532 154.781 83.6191 154.749 83.6372 154.659C83.7238 154.233 83.7085 153.791 83.7227 153.357C83.7249 153.28 83.68 153.223 83.6208 153.183C85.3169 152.127 87.0222 151.086 88.7824 150.14C88.891 150.081 88.8038 149.909 88.6942 149.968Z" fill="#33475C"/>
<path fill-rule="evenodd" clip-rule="evenodd" d="M77.1954 173.91C77.1071 173.91 77.0211 173.864 76.9734 173.781C76.9032 173.659 76.9454 173.501 77.0671 173.429L89.4297 166.247C89.5492 166.177 89.7071 166.218 89.78 166.342C89.8501 166.465 89.8079 166.623 89.6862 166.695L77.3237 173.876C77.2837 173.899 77.2393 173.91 77.1954 173.91Z" fill="#33475C"/>
<path fill-rule="evenodd" clip-rule="evenodd" d="M102.34 159.304C102.252 159.304 102.166 159.258 102.118 159.175C102.048 159.052 102.09 158.894 102.212 158.822L114.567 151.646C114.685 151.576 114.844 151.616 114.917 151.741C114.986 151.864 114.945 152.022 114.823 152.093L102.468 159.27C102.428 159.293 102.384 159.304 102.34 159.304Z" fill="#33475C"/>
<path fill-rule="evenodd" clip-rule="evenodd" d="M75.4376 172.644C75.3493 172.644 75.2633 172.598 75.2156 172.515C75.1454 172.392 75.1876 172.234 75.3093 172.162L87.7503 164.936C87.8703 164.865 88.0271 164.905 88.1005 165.031C88.1702 165.153 88.1285 165.311 88.0063 165.383L75.5659 172.61C75.5258 172.633 75.4814 172.644 75.4376 172.644Z" fill="#33475C"/>
<path fill-rule="evenodd" clip-rule="evenodd" d="M100.659 157.992C100.571 157.992 100.485 157.946 100.437 157.863C100.367 157.741 100.409 157.582 100.531 157.511L112.886 150.335C113.005 150.265 113.163 150.304 113.236 150.429C113.306 150.552 113.264 150.71 113.142 150.781L100.788 157.958C100.748 157.981 100.703 157.992 100.659 157.992Z" fill="#33475C"/>
<path fill-rule="evenodd" clip-rule="evenodd" d="M83.7053 146.873C83.2969 147.221 82.9746 147.703 82.672 148.189C82.6868 147.896 82.6852 147.602 82.6512 147.301C82.6292 147.111 82.3623 146.986 82.2559 147.193C81.9155 147.856 81.5734 148.518 81.2473 149.188C81.2813 148.815 81.3832 148.456 81.5225 148.08C81.5285 148.065 81.5066 148.053 81.4962 148.064C81.0455 148.556 80.9025 149.228 80.9288 149.882C80.9354 150.048 81.1568 150.118 81.2445 149.968C81.597 149.369 81.921 148.752 82.2422 148.135C82.2247 148.465 82.1803 148.792 82.0942 149.123C82.0273 149.378 82.359 149.497 82.4999 149.295C82.9954 148.584 83.6774 147.849 83.9663 147.026C84.0227 146.865 83.8133 146.781 83.7053 146.873Z" fill="#33475C"/>
<path fill-rule="evenodd" clip-rule="evenodd" d="M68.1817 159.434C68.1515 159.581 68.1033 159.721 68.0676 159.866C67.998 159.764 67.9465 159.556 67.9273 159.186C68.0901 158.711 68.2529 158.236 68.4152 157.761C68.3373 158.319 68.2595 158.876 68.1817 159.434ZM65.4731 160.204C65.0872 161.009 64.9726 158.493 64.9726 158.493C65.6874 158.737 65.8585 159.399 65.4731 160.204ZM78.8876 150.031C78.8016 150.146 77.3566 152.048 77.2968 151.95C77.1707 151.744 76.8193 151.766 76.7618 152.021C76.3797 153.713 76.2098 151.805 76.1012 151.335C76.0464 151.097 75.7137 151.069 75.5963 151.268C75.3255 151.727 74.7313 153.489 74.3498 153.749C73.9063 154.053 74.6721 154.533 73.8592 153.823C73.6925 153.677 73.4809 153.748 73.402 153.944C73.1213 154.683 72.7979 155.401 72.4317 156.099C72.3396 155.549 72.2968 154.994 72.3034 154.436C72.2963 154.227 71.9986 154.05 71.8468 154.246C71.3841 154.842 70.9818 155.397 70.6512 156.083C70.489 156.419 69.9117 158.247 70.0729 156.74C70.1052 156.44 69.6217 156.381 69.5538 156.669C69.4123 157.267 69.2714 157.863 69.0752 158.446C69.0292 158.582 68.953 158.778 68.863 158.983C68.9721 158.176 69.027 157.438 69.0467 156.875C69.056 156.61 68.7167 156.486 68.5374 156.663C67.3342 157.854 67.071 159.362 67.7985 160.83C67.6762 161.198 67.543 161.562 67.3939 161.924C67.2317 162.317 67.1324 162.612 67.036 162.836L67.0393 162.837C67.0393 162.837 66.4121 164.524 65.3235 164.234C64.2967 163.96 63.9969 162.158 63.9656 161.951C63.964 161.94 63.9623 161.929 63.9607 161.918L63.9596 161.911C63.9278 161.683 63.9196 161.406 63.9196 161.056C63.8998 158.829 64.6991 158.731 64.6991 158.731C64.7089 159.416 64.8208 160.093 65.0647 160.852C65.1124 161 65.2686 161.063 65.4057 160.992C66.5974 160.369 66.4724 158.009 64.9748 157.689C64.9556 157.685 64.9397 157.687 64.9211 157.683C64.9386 157.414 64.9715 157.145 65.0362 156.874C65.0488 156.794 64.931 156.757 64.9129 156.839C64.8476 157.128 64.8071 157.398 64.7703 157.667C63.2765 157.571 63.2897 160.206 63.3708 161.13C63.475 162.322 63.9185 166.206 65.9226 165.256C67.184 164.658 67.9558 163.005 68.4196 161.244C68.4393 161.225 68.4623 161.213 68.476 161.186C69.0122 160.136 69.4266 159.106 69.7506 158.009C69.8147 158.124 69.8892 158.241 69.9846 158.37C70.1107 158.541 70.4111 158.55 70.4692 158.307C70.5525 157.957 71.2679 155.191 71.7953 155.278C71.7679 155.273 72.025 157.097 72.0129 157.019C72.0502 157.256 72.401 157.275 72.5063 157.084C72.6219 156.874 73.6689 154.302 74.0631 154.86C74.2029 155.058 74.4835 155.027 74.5652 154.795C74.6524 154.545 75.4034 152.238 75.6714 152.27C75.8112 152.287 76.0968 153.405 76.1681 153.617C76.2476 153.854 76.5529 153.898 76.6889 153.686C77.1307 152.996 77.3105 153.105 76.906 152.437C76.9805 152.56 77.1044 152.593 77.2371 152.573C78.278 152.415 78.8339 151.095 79.4057 150.336C79.6392 150.027 79.1173 149.723 78.8876 150.031Z" fill="#33475C"/>
<path fill-rule="evenodd" clip-rule="evenodd" d="M96.9962 143.573C96.898 143.615 93.5103 144.265 93.0728 143.827C92.9901 143.744 92.8251 143.729 92.745 143.827C92.6507 143.942 91.84 145.043 91.7216 144.975C91.573 144.89 92.0012 142.598 92.0203 142.439C92.0467 142.219 91.7391 142.182 91.6383 142.335C91.3433 142.781 89.7114 145.438 89.4888 145.402C89.6785 145.433 89.4581 143.92 89.4494 143.856C89.4302 143.719 89.2131 143.663 89.1292 143.771C88.5838 144.475 88.0575 145.19 87.5779 145.942C86.6833 147.347 87.1777 146.846 87.511 145.463C87.7851 144.327 88.5778 142.767 87.7961 141.723C87.761 141.677 87.699 141.647 87.6442 141.683C86.8378 142.203 86.2732 142.771 85.833 143.55L85.7793 143.621L85.7683 143.674C85.6949 143.812 85.616 143.941 85.5496 144.094C85.5151 144.173 85.6242 144.243 85.6669 144.164C85.6878 144.125 85.7135 144.074 85.7409 144.021C85.9323 143.657 86.4898 142.682 86.9689 142.598C87.8739 142.574 87.6546 143.732 87.5105 144.268L86.6142 147.604C86.5599 147.806 86.8483 147.934 86.9524 147.747C87.2583 147.202 87.568 146.662 87.9046 146.135C88.0362 145.922 88.1738 145.714 88.3179 145.51C88.5805 144.933 88.7899 145.111 88.9461 146.047C88.8995 146.224 89.1435 146.396 89.2718 146.238C89.9066 145.454 90.4723 144.545 91.1405 143.795C91.3576 143.551 91.4316 143.158 91.505 143.284C91.6613 143.554 91.2244 145.498 91.1833 145.821C91.1597 146.008 91.442 146.117 91.5588 145.977C92.0055 145.44 92.4561 144.69 93.1019 144.501C93.2198 144.466 93.7093 144.623 93.9143 144.6C95.0035 144.482 96.1728 144.463 97.1381 143.912C97.3136 143.812 97.193 143.491 96.9962 143.573Z" fill="#33475C"/>
<path fill-rule="evenodd" clip-rule="evenodd" d="M92.0748 164.522C91.548 163.901 91.1275 163.406 91.2586 162.522C91.2679 162.462 91.1802 162.434 91.1665 162.497C90.9993 163.232 91.2147 164.313 91.9778 164.648C92.0606 164.685 92.1362 164.595 92.0748 164.522Z" fill="#33475C"/>
<path fill-rule="evenodd" clip-rule="evenodd" d="M95.403 157.356C94.6141 156.925 92.8792 157.403 92.4017 158.168C92.3907 158.186 92.4094 158.21 92.4291 158.204C92.9197 158.048 93.3265 157.73 93.8423 157.616C94.3653 157.501 94.8696 157.623 95.3789 157.54C95.4655 157.526 95.4742 157.394 95.403 157.356Z" fill="#33475C"/>
<path fill-rule="evenodd" clip-rule="evenodd" d="M96.5151 162.417C96.2755 162.522 96.0365 162.625 95.7969 162.729C96.076 162.018 96.6318 161.29 96.987 161.267C97.4634 161.811 97.3055 162.194 96.5151 162.417ZM96.1933 164.097C95.7016 164.088 95.576 163.729 95.6456 163.272C96.1341 163.155 96.6258 163.028 97.0528 162.82C96.765 163.447 96.4136 164.101 96.1933 164.097ZM91.8106 161.675C91.8106 161.675 90.5202 160.969 90.5202 160.076C90.5202 159.183 91.6286 159.159 91.6286 159.159C91.9509 159.21 92.2732 159.261 92.5956 159.311C92.6762 159.331 92.76 159.353 92.8433 159.374C92.6805 160.231 92.5676 161.085 92.5112 161.94C92.2436 161.91 91.997 161.838 91.8106 161.675ZM93.2506 159.572L93.8684 159.889C93.8684 159.889 93.5686 161.321 93.5593 161.94C93.5593 161.94 93.0522 162.023 92.9919 161.94C92.9919 161.94 93.0029 160.38 93.2506 159.572ZM94.3947 160.076C94.6858 160.336 94.8859 160.68 94.9116 161.156C94.9138 161.196 94.9314 161.224 94.956 161.244C94.6962 161.401 94.3942 161.55 94.068 161.675C94.0948 161.121 94.1995 160.593 94.3947 160.076ZM94.7335 159.346C94.956 158.947 95.6506 157.852 96.2969 158.371L96.3188 159.589C96.2245 160.127 95.9559 160.545 95.5113 160.842C95.4181 160.932 95.2904 161.028 95.1457 161.126C95.1172 160.6 94.8842 160.142 94.5427 159.757C94.6052 159.62 94.6578 159.482 94.7335 159.346ZM99.1792 163.378C99.1217 163.441 99.0685 163.476 99.017 163.498C99.0438 163.46 99.0597 163.412 99.0822 163.371C99.103 163.353 99.1244 163.337 99.1419 163.311C99.7976 162.34 99.8157 161.145 99.3519 160.081C99.0548 159.4 98.2807 158.15 97.4596 158.086C97.4256 158.084 97.3954 158.113 97.3856 158.143C97.3773 158.17 97.3686 158.197 97.3604 158.224C97.3543 158.244 97.373 158.257 97.39 158.254C97.823 158.178 98.7275 159.973 98.8552 160.292C99.2291 161.228 99.171 162.151 98.6442 163.019C98.6058 163.082 98.5992 163.143 98.6069 163.199C98.6014 163.205 98.5965 163.212 98.5916 163.218C98.3558 162.745 98.2385 161.879 98.1908 161.706C98.1837 161.681 98.164 161.672 98.1536 161.651C98.1722 161.603 98.1974 161.562 98.2128 161.511C98.557 160.342 97.4914 160.292 96.6872 160.75C96.1154 161.076 95.3343 161.964 94.9664 162.884C94.5915 162.897 94.2253 162.879 93.8482 162.974C93.4853 163.066 93.2271 163.236 93.033 163.449C93.0303 163.135 93.0275 162.822 93.039 162.51C93.2019 162.499 93.363 162.477 93.5258 162.447C93.5351 162.484 93.5406 162.522 93.5505 162.559C93.6261 162.847 94.1036 162.799 94.0795 162.487C94.0751 162.426 94.08 162.368 94.0773 162.307C96.1187 161.64 97.7748 159.532 96.3221 157.393C96.2525 157.291 96.099 157.222 95.9844 157.304C95.1852 157.882 94.5778 158.588 94.1623 159.388C93.9397 159.212 93.6914 159.067 93.4266 158.946C93.3597 158.778 93.1596 158.69 93.0237 158.777C92.3933 158.568 91.7157 158.514 91.1281 158.664C89.8728 158.985 89.6233 160.444 90.3678 161.401C90.9165 162.108 91.6757 162.442 92.481 162.509C92.4421 163.518 92.4684 164.531 92.5786 165.56C92.6175 165.919 93.1766 165.93 93.1465 165.56C93.1388 165.465 93.1454 165.384 93.1459 165.298C93.1618 165.312 93.1827 165.319 93.1986 165.332C93.2008 165.335 93.2024 165.337 93.2046 165.34L93.2051 165.341C93.221 165.36 93.2347 165.381 93.2506 165.401C93.3044 165.467 93.3723 165.493 93.4403 165.492C94.802 166.357 97.038 165.614 97.9458 164.406C97.9858 164.353 97.9096 164.287 97.8581 164.318C96.7382 165.004 94.7296 165.934 93.5801 164.801C93.5735 164.795 93.5658 164.796 93.5593 164.79C93.4913 164.673 93.4266 164.554 93.3669 164.433C93.6497 163.937 94.1705 163.673 94.7916 163.492C94.7165 163.935 94.7702 164.358 95.0339 164.697C95.9976 165.937 97.0813 164.291 97.7134 162.995C97.8044 163.471 97.9612 163.926 98.3668 164.139C98.9112 164.426 99.3486 164.203 99.6068 163.71C99.7455 163.445 99.3957 163.138 99.1792 163.378Z" fill="#33475C"/>
<path fill-rule="evenodd" clip-rule="evenodd" d="M82.3448 162.603C82.12 162.184 81.9452 161.836 81.5587 161.561C81.5329 161.543 81.5072 161.544 81.4809 161.539C80.8779 160.789 80.299 160.018 79.8007 159.192C79.6417 158.929 79.2498 159.104 79.315 159.399C79.4986 160.231 79.7223 161.05 79.9657 161.863C79.673 161.481 79.3715 161.105 79.0897 160.714C79.0689 160.685 79.0228 160.71 79.0415 160.742C79.543 161.627 80.0057 162.524 80.4689 163.429C80.6109 163.705 81.0779 163.515 80.9738 163.215C80.703 162.432 80.4645 161.64 80.2425 160.843C80.7238 161.559 81.2249 162.261 81.7747 162.932C81.7752 162.933 81.7763 162.935 81.7774 162.936L81.778 162.936C81.7961 162.958 81.8109 162.982 81.829 163.003C82.0751 163.301 82.5153 162.921 82.3448 162.603Z" fill="#33475C"/>
<path fill-rule="evenodd" clip-rule="evenodd" d="M89.5804 152.714C89.6018 153.189 89.6089 153.579 89.8386 153.996C89.8534 154.023 89.8775 154.034 89.8989 154.049C90.1182 154.989 90.3062 155.937 90.3983 156.898C90.4279 157.205 90.856 157.219 90.9251 156.925C91.1191 156.095 91.2715 155.26 91.4037 154.421C91.5018 154.893 91.6109 155.363 91.6958 155.839C91.7024 155.874 91.7545 155.871 91.7517 155.834C91.6821 154.819 91.6531 153.808 91.6262 152.79C91.618 152.48 91.1153 152.447 91.0791 152.763C90.9854 153.586 90.8577 154.403 90.7135 155.218C90.5896 154.363 90.441 153.512 90.236 152.667C90.236 152.666 90.2355 152.664 90.2355 152.662C90.2289 152.634 90.2251 152.606 90.2179 152.579C90.1253 152.203 89.5645 152.353 89.5804 152.714Z" fill="#33475C"/>
<path fill-rule="evenodd" clip-rule="evenodd" d="M88.7967 155.686C88.6476 156.322 87.3934 156.66 86.9236 156.952C86.2959 157.342 85.9878 157.564 85.3059 157.733C84.733 157.874 84.3729 158.167 84.0845 158.56C83.9607 158.152 83.7134 157.837 83.2382 157.971C82.5266 158.171 82.6017 159.69 82.6812 160.622C82.4998 160.459 82.3435 160.27 82.2262 160.039C82.2109 160.012 82.1659 160.023 82.167 160.055C82.1906 160.691 82.3474 161.023 82.8221 161.448C83.0178 161.622 83.3429 161.507 83.3456 161.229C83.35 160.797 83.2853 160.229 83.3631 159.804C83.4103 159.545 83.6285 158.773 83.5342 159.625C83.4991 159.944 84.0073 160.077 84.1405 159.791C84.6448 158.7 86.2499 158.237 87.2991 157.599C88.0621 157.135 89.3147 156.885 89.4912 155.878C89.5707 155.427 88.9047 155.225 88.7967 155.686Z" fill="#33475C"/>
<path fill-rule="evenodd" clip-rule="evenodd" d="M96.6196 150.274C96.4019 150.361 94.8506 151.586 94.9509 151.756C94.8303 151.552 94.6001 151.525 94.4384 151.7C94.303 151.848 94.1851 151.996 94.0809 152.153C94.0327 152.058 93.9839 151.963 93.9351 151.868C93.8551 151.712 93.6627 151.694 93.5503 151.826C93.1392 152.309 92.7763 152.851 92.5471 153.446C92.4748 153.277 92.4194 153.101 92.392 152.913C92.3832 152.873 92.3202 152.883 92.329 152.923C92.4079 153.278 92.4512 153.554 92.3904 153.929C92.352 154.166 92.6853 154.224 92.7779 154.026C93.0454 153.456 93.3025 152.925 93.6594 152.426C93.712 152.572 93.7641 152.718 93.8162 152.864C93.883 153.05 94.1944 153.097 94.2964 152.917C94.4241 152.692 94.565 152.492 94.7201 152.298C94.8846 152.371 95.0748 152.36 95.2842 152.225C95.8455 151.864 96.6163 151.155 96.898 150.543C96.9781 150.369 96.7785 150.21 96.6196 150.274Z" fill="#33475C"/>
<path fill-rule="evenodd" clip-rule="evenodd" d="M49.7008 166.942L49.7019 169.9C49.7025 170.467 50.1015 171.162 50.59 171.446L54.7956 173.89C55.2835 174.174 55.682 173.942 55.6815 173.375L55.676 169.828L60.4282 150.361C60.7061 149.261 60.1267 148.811 59.1399 149.359L55.5724 151.34C54.5857 151.888 53.6856 152.419 53.5726 152.52C53.4597 152.62 53.0672 153.869 52.7843 154.967L50.1766 165.086C49.8938 166.184 49.6784 166.689 49.7008 166.942Z" fill="#FF7A53"/>
<path fill-rule="evenodd" clip-rule="evenodd" d="M50.2127 166.943L50.2149 169.899C50.2149 170.284 50.5159 170.807 50.8453 170.999L55.0515 173.444C55.1047 173.475 55.1436 173.488 55.1677 173.493C55.1606 173.477 55.1688 173.437 55.1688 173.376L55.1639 169.828C55.1639 169.786 55.1688 169.745 55.1787 169.704L59.9309 150.238C60.0306 149.84 59.966 149.671 59.9446 149.65C59.9199 149.636 59.7385 149.616 59.3871 149.81L55.819 151.792C54.8745 152.316 54.1794 152.73 53.9601 152.875C53.845 153.14 53.549 154.057 53.2803 155.097L50.6732 165.216C50.557 165.663 50.4528 166.013 50.3706 166.29C50.2928 166.553 50.2116 166.826 50.2105 166.905L50.2127 166.943ZM55.1919 174.527C54.9797 174.527 54.7577 174.463 54.5406 174.337L50.3339 171.892C49.6925 171.521 49.1904 170.646 49.1904 169.899L49.1882 166.961C49.1739 166.719 49.2523 166.456 49.3894 165.994C49.4683 165.727 49.5692 165.389 49.6804 164.956L52.2881 154.837C52.5732 153.734 52.9673 152.37 53.2338 152.135C53.4815 151.913 55.25 150.931 55.3251 150.889L58.8932 148.908C59.7927 148.408 60.3321 148.647 60.5722 148.835C60.8123 149.022 61.1785 149.485 60.9242 150.488L56.1884 169.89L56.1934 173.374C56.1945 173.833 56.0064 174.207 55.6792 174.397C55.5312 174.484 55.3651 174.527 55.1919 174.527Z" fill="#33475C"/>
<path fill-rule="evenodd" clip-rule="evenodd" d="M120.038 145.331L115.681 142.8C115.395 142.634 115.048 142.617 114.747 142.754C114.446 142.891 114.229 143.166 114.164 143.491L109.74 165.742C109.648 166.301 109.72 167.004 109.72 167.571V169.583C109.72 170.15 110.116 170.377 110.6 170.086L116.563 166.506C117.047 166.215 117.443 165.513 117.443 164.946V162.989C117.443 162.423 117.533 161.505 117.643 160.948L120.531 146.427C120.617 145.993 120.419 145.553 120.038 145.331Z" fill="#FF7A53"/>
<path fill-rule="evenodd" clip-rule="evenodd" d="M115.169 143.178C115.097 143.178 115.025 143.193 114.958 143.225C114.808 143.292 114.699 143.43 114.667 143.593L110.243 165.843C110.19 166.168 110.205 166.6 110.22 167.018C110.227 167.21 110.233 167.396 110.233 167.571V169.583C110.233 169.636 110.239 169.674 110.245 169.698C110.258 169.684 110.293 169.67 110.337 169.644L116.3 166.063C116.631 165.865 116.931 165.333 116.931 164.946V162.989C116.931 162.394 117.025 161.433 117.141 160.848L120.029 146.327C120.072 146.109 119.973 145.889 119.782 145.778L115.425 143.247C115.346 143.201 115.258 143.178 115.169 143.178ZM110.2 170.728C110.032 170.728 109.871 170.687 109.727 170.605C109.397 170.417 109.208 170.044 109.208 169.583V167.571C109.208 167.408 109.203 167.234 109.196 167.055C109.18 166.586 109.163 166.102 109.236 165.658L113.662 143.391C113.759 142.902 114.086 142.489 114.536 142.285C114.986 142.078 115.512 142.106 115.939 142.355L120.295 144.886H120.296C120.866 145.218 121.163 145.878 121.033 146.528L118.146 161.049C118.043 161.57 117.956 162.459 117.956 162.989V164.946C117.956 165.702 117.469 166.563 116.825 166.948L110.863 170.529C110.642 170.66 110.415 170.728 110.2 170.728Z" fill="#33475C"/>
<path fill-rule="evenodd" clip-rule="evenodd" d="M58.7321 150.794C58.7863 150.58 58.7913 150.365 58.7573 150.16L55.8196 151.791C55.6052 151.911 55.4079 152.021 55.2221 152.127L51.2763 167.702L51.2549 171.237L54.0237 172.847C54.015 171.916 53.9936 169.281 54.0418 169.309L58.7321 150.794Z" fill="#F6C364"/>
<path fill-rule="evenodd" clip-rule="evenodd" d="M116.19 143.691L111.903 165.283V168.703L115.272 166.679L115.315 163.885L119 145.324L116.19 143.691Z" fill="#F6C364"/>
<path opacity="0.25" fill-rule="evenodd" clip-rule="evenodd" d="M116.957 162.336L110.05 166.344L110.205 169.966L117.406 165.886L116.957 162.336Z" fill="#33475C"/>
<path opacity="0.25" fill-rule="evenodd" clip-rule="evenodd" d="M55.4398 170.137L49.6992 166.593V171.216L55.6788 174.397L55.4398 170.137Z" fill="#33475C"/>
<path fill-rule="evenodd" clip-rule="evenodd" d="M101.989 139.201C101.141 139.201 100.453 138.51 100.452 137.656L100.446 119.41C100.446 118.555 101.134 117.862 101.983 117.862C102.831 117.862 103.52 118.554 103.52 119.408L103.527 137.654C103.527 138.508 102.839 139.201 101.989 139.201Z" stroke="#33475C" stroke-width="5"/>
<path fill-rule="evenodd" clip-rule="evenodd" d="M101.984 118.378C101.71 118.378 101.452 118.485 101.258 118.68C101.065 118.875 100.959 119.134 100.959 119.409L100.965 137.656C100.965 138.224 101.425 138.686 101.99 138.686C102.555 138.686 103.014 138.223 103.014 137.654L103.008 119.408C103.007 118.84 102.548 118.378 101.984 118.378ZM101.99 139.717C100.86 139.717 99.9406 138.792 99.9406 137.656L99.9346 119.41C99.9335 118.859 100.147 118.341 100.534 117.951C100.92 117.561 101.435 117.347 101.983 117.347C103.111 117.347 104.032 118.271 104.033 119.406L104.039 137.654C104.039 138.791 103.12 139.717 101.99 139.717Z" stroke="#33475C" stroke-width="5"/>
<path fill-rule="evenodd" clip-rule="evenodd" d="M63.3564 127.806V139.44C63.3564 141.762 64.8727 144.084 67.9052 145.845C73.9698 149.369 83.894 149.369 89.9585 145.845C92.9911 144.084 94.5073 141.762 94.5073 139.44V127.806H63.3564Z" stroke="#33475C" stroke-width="5"/>
<path fill-rule="evenodd" clip-rule="evenodd" d="M63.8693 128.322V139.44C63.8693 141.675 65.3932 143.791 68.161 145.399C74.1005 148.848 83.7627 148.848 89.7023 145.399C92.47 143.791 93.9945 141.675 93.9945 139.44V128.322H63.8693ZM78.9316 149.002C74.8449 149.002 70.7594 148.099 67.6484 146.291C64.5507 144.492 62.8447 142.059 62.8447 139.44V127.806C62.8447 127.522 63.0739 127.291 63.3567 127.291H94.5071C94.7905 127.291 95.0196 127.522 95.0196 127.806V139.44C95.0196 142.06 93.3131 144.493 90.2143 146.291C87.1044 148.098 83.0172 149.002 78.9316 149.002Z" stroke="#33475C" stroke-width="5"/>
<path fill-rule="evenodd" clip-rule="evenodd" d="M108.705 123.141V120.379L105.86 118.602L103.803 119.385L81.5935 106.484C80.1293 105.633 77.7332 105.633 76.269 106.484L53.5765 119.666L49.1582 120.381V123.141C49.1582 123.702 49.5238 124.263 50.2562 124.688L76.2695 139.799C77.7337 140.65 80.1293 140.65 81.5935 139.799L107.607 124.688C108.339 124.263 108.705 123.702 108.705 123.141Z" stroke="#33475C" stroke-width="5"/>
<path fill-rule="evenodd" clip-rule="evenodd" d="M49.671 120.82V123.142C49.671 123.529 49.978 123.93 50.5136 124.242L76.5264 139.353C77.8305 140.111 80.0347 140.11 81.3383 139.353L107.351 124.242C107.886 123.931 108.193 123.531 108.193 123.142V120.666L105.805 119.174L103.985 119.868C103.843 119.923 103.681 119.91 103.548 119.832L81.3383 106.93C80.0336 106.172 77.831 106.172 76.5264 106.93L53.8334 120.113C53.7796 120.145 53.7204 120.166 53.6585 120.176L49.671 120.82ZM78.9318 140.959C77.8826 140.959 76.8317 140.721 76.0144 140.245L50.001 125.135C49.1278 124.627 48.6465 123.919 48.6465 123.142V120.381C48.6465 120.129 48.8296 119.912 49.0779 119.872L53.4036 119.172L76.0144 106.038C77.6501 105.085 80.2145 105.086 81.8509 106.038L103.85 118.817L105.679 118.12C105.827 118.063 105.995 118.079 106.131 118.164L108.975 119.941C109.126 120.035 109.218 120.201 109.218 120.379V123.142C109.218 123.919 108.737 124.627 107.864 125.135L81.8509 140.245C81.0324 140.721 79.9816 140.959 78.9318 140.959Z" stroke="#33475C" stroke-width="5"/>
<path fill-rule="evenodd" clip-rule="evenodd" d="M50.2563 121.927C48.7922 121.077 48.7922 119.685 50.2563 118.835L76.2697 103.723C77.7333 102.872 80.1294 102.872 81.5936 103.723L107.607 118.835C109.071 119.685 109.071 121.077 107.607 121.927L81.5936 137.038C80.1294 137.889 77.7339 137.889 76.2697 137.038L50.2563 121.927Z" stroke="#33475C" stroke-width="5"/>
<path fill-rule="evenodd" clip-rule="evenodd" d="M78.9318 103.601C78.0552 103.601 77.1787 103.79 76.5264 104.169L50.5136 119.281C49.978 119.592 49.671 119.993 49.671 120.38C49.671 120.769 49.978 121.171 50.5136 121.482L76.5264 136.592C77.83 137.351 80.0347 137.35 81.3383 136.592L107.351 121.482C107.887 121.171 108.193 120.769 108.193 120.38C108.193 119.993 107.887 119.592 107.351 119.281L81.3383 104.169C80.686 103.79 79.8094 103.601 78.9318 103.601ZM78.9318 138.199C77.882 138.199 76.8317 137.961 76.0138 137.485L50.001 122.374C49.1278 121.866 48.6465 121.159 48.6465 120.38C48.6465 119.603 49.1278 118.895 50.001 118.388L76.0138 103.277C77.6501 102.325 80.2145 102.325 81.8503 103.277L107.864 118.389C108.736 118.895 109.217 119.603 109.217 120.38C109.217 121.159 108.737 121.866 107.864 122.374L81.8503 137.485C81.0319 137.96 79.9816 138.199 78.9318 138.199Z" stroke="#33475C" stroke-width="5"/>
<path fill-rule="evenodd" clip-rule="evenodd" d="M78.9332 121.573C78.4009 121.573 77.884 121.295 77.5995 120.798C77.1763 120.058 77.4295 119.113 78.1652 118.687L93.557 109.778C94.2949 109.351 95.2328 109.607 95.656 110.347C96.0792 111.086 95.8254 112.032 95.0903 112.458L79.6979 121.367C79.4567 121.507 79.193 121.573 78.9332 121.573Z" stroke="#33475C" stroke-width="5"/>
<path fill-rule="evenodd" clip-rule="evenodd" d="M94.3218 110.088C94.1486 110.088 93.9737 110.131 93.8126 110.225L78.4202 119.134C77.9307 119.417 77.7619 120.048 78.0436 120.541C78.315 121.014 78.9673 121.197 79.4415 120.92L94.8349 112.011C95.3244 111.728 95.4933 111.097 95.2115 110.604C95.0224 110.273 94.677 110.088 94.3218 110.088ZM78.9333 122.089C78.2009 122.089 77.5196 121.693 77.1556 121.055C76.882 120.578 76.8113 120.022 76.9533 119.49C77.0953 118.959 77.4357 118.515 77.9099 118.24L93.3022 109.331C94.2796 108.767 95.5355 109.103 96.1001 110.09C96.6631 111.075 96.3249 112.338 95.3453 112.905L79.9529 121.814C79.6438 121.993 79.2907 122.089 78.9333 122.089Z" stroke="#33475C" stroke-width="5"/>
<path fill-rule="evenodd" clip-rule="evenodd" d="M78.9319 117.133C75.4844 117.133 75.3457 120.027 75.3457 120.027C75.3457 120.562 75.6949 121.097 76.3927 121.502C77.7895 122.313 80.0743 122.313 81.4705 121.502C82.1689 121.097 82.5181 120.562 82.5181 120.027C82.5181 120.027 82.3794 117.133 78.9319 117.133Z" stroke="#33475C" stroke-width="5"/>
<path fill-rule="evenodd" clip-rule="evenodd" d="M78.9318 117.649C76.0818 117.649 75.8718 119.808 75.857 120.055C75.8581 120.388 76.1459 120.763 76.6491 121.056C77.8869 121.776 79.9771 121.774 81.2149 121.056C81.7176 120.763 82.0054 120.388 82.0054 120.027C81.9917 119.808 81.7817 117.649 78.9318 117.649ZM78.9318 122.632C77.9264 122.632 76.9205 122.404 76.1371 121.948C75.2968 121.46 74.833 120.778 74.833 120.027C74.8352 119.969 75.0413 116.618 78.9318 116.618C82.8233 116.618 83.0283 119.969 83.0294 120.002C83.0305 120.777 82.5678 121.46 81.7275 121.948C80.9441 122.404 79.9371 122.632 78.9318 122.632Z" stroke="#33475C" stroke-width="5"/>
<path fill-rule="evenodd" clip-rule="evenodd" d="M99.6775 137.52C99.8743 138.295 99.8623 139.386 101.081 139.739C101.081 139.739 105.786 140.18 105.461 138.01C105.461 138.01 105.045 137.797 104.722 135.905C104.523 134.736 99.1239 135.342 99.6775 137.52Z" stroke="#33475C" stroke-width="5"/>
<path fill-rule="evenodd" clip-rule="evenodd" d="M103.251 135.829C102.557 135.829 101.625 135.964 100.882 136.356C100.026 136.81 100.137 137.248 100.174 137.392C100.209 137.529 100.238 137.674 100.267 137.824C100.415 138.576 100.54 139.046 101.223 139.244C102.233 139.328 104.211 139.254 104.806 138.621C104.91 138.511 104.961 138.389 104.965 138.239C104.716 137.924 104.438 137.281 104.217 135.992C104.127 135.899 103.751 135.829 103.251 135.829ZM102.037 140.295C101.528 140.295 101.143 140.263 101.033 140.253C99.6219 139.853 99.4053 138.752 99.2622 138.024C99.2365 137.894 99.2113 137.767 99.1811 137.648C99.0194 137.012 99.2162 136.394 99.7348 135.91C100.803 134.915 103.185 134.564 104.381 134.971C104.997 135.181 105.182 135.548 105.228 135.817C105.477 137.282 105.771 137.602 105.774 137.606C105.922 137.681 105.943 137.768 105.968 137.934C106.049 138.471 105.903 138.953 105.55 139.329C104.782 140.148 103.125 140.295 102.037 140.295Z" stroke="#33475C" stroke-width="5"/>
<path fill-rule="evenodd" clip-rule="evenodd" d="M100.76 138.334C100.76 138.334 102.548 136.297 105.461 138.01C108.375 139.723 110.376 140.057 110.376 140.057C110.376 140.057 110.661 145.206 106.819 145.383C106.819 145.383 104.557 144.878 102.076 142.344C99.5946 139.81 100.76 138.334 100.76 138.334Z" stroke="#33475C" stroke-width="5"/>
<path fill-rule="evenodd" clip-rule="evenodd" d="M101.157 138.66C101.065 138.805 100.448 139.948 102.44 141.982C104.566 144.151 106.504 144.764 106.868 144.864C107.65 144.813 108.265 144.526 108.748 143.99C109.691 142.944 109.845 141.233 109.865 140.472C109.11 140.282 107.411 139.754 105.203 138.455C102.819 137.054 101.339 138.47 101.157 138.66ZM106.818 145.898C106.781 145.898 106.743 145.894 106.707 145.886C106.609 145.864 104.269 145.317 101.71 142.705C98.9425 139.88 100.298 138.089 100.357 138.014C100.363 138.007 100.368 138 100.374 137.993C100.396 137.969 102.479 135.659 105.72 137.565C108.501 139.2 110.441 139.545 110.46 139.549C110.695 139.589 110.874 139.788 110.887 140.029C110.893 140.149 111.032 142.985 109.511 144.679C108.829 145.437 107.932 145.848 106.841 145.897C106.834 145.898 106.826 145.898 106.818 145.898Z" stroke="#33475C" stroke-width="5"/>
<path fill-rule="evenodd" clip-rule="evenodd" d="M101.989 139.201C101.141 139.201 100.453 138.51 100.452 137.656L100.446 119.41C100.446 118.555 101.134 117.862 101.983 117.862C102.831 117.862 103.52 118.554 103.52 119.408L103.527 137.654C103.527 138.508 102.839 139.201 101.989 139.201Z" fill="#FF7A53"/>
<path fill-rule="evenodd" clip-rule="evenodd" d="M101.984 118.378C101.71 118.378 101.452 118.485 101.258 118.68C101.065 118.875 100.959 119.134 100.959 119.409L100.965 137.656C100.965 138.224 101.425 138.686 101.99 138.686C102.555 138.686 103.014 138.223 103.014 137.654L103.008 119.408C103.007 118.84 102.548 118.378 101.984 118.378ZM101.99 139.717C100.86 139.717 99.9406 138.792 99.9406 137.656L99.9346 119.41C99.9335 118.859 100.147 118.341 100.534 117.951C100.92 117.561 101.435 117.347 101.983 117.347C103.111 117.347 104.032 118.271 104.033 119.406L104.039 137.654C104.039 138.791 103.12 139.717 101.99 139.717Z" fill="#33475C"/>
<path fill-rule="evenodd" clip-rule="evenodd" d="M63.3564 127.806V139.44C63.3564 141.762 64.8727 144.084 67.9052 145.845C73.9698 149.369 83.894 149.369 89.9585 145.845C92.9911 144.084 94.5073 141.762 94.5073 139.44V127.806H63.3564Z" fill="#506E91"/>
<path fill-rule="evenodd" clip-rule="evenodd" d="M63.8693 128.322V139.44C63.8693 141.675 65.3932 143.791 68.161 145.399C74.1005 148.848 83.7627 148.848 89.7023 145.399C92.47 143.791 93.9945 141.675 93.9945 139.44V128.322H63.8693ZM78.9316 149.002C74.8449 149.002 70.7594 148.099 67.6484 146.291C64.5507 144.492 62.8447 142.059 62.8447 139.44V127.806C62.8447 127.522 63.0739 127.291 63.3567 127.291H94.5071C94.7905 127.291 95.0196 127.522 95.0196 127.806V139.44C95.0196 142.06 93.3131 144.493 90.2143 146.291C87.1044 148.098 83.0172 149.002 78.9316 149.002Z" fill="#33475C"/>
<path fill-rule="evenodd" clip-rule="evenodd" d="M108.705 123.141V120.379L105.86 118.602L103.803 119.385L81.5935 106.484C80.1293 105.633 77.7332 105.633 76.269 106.484L53.5765 119.666L49.1582 120.381V123.141C49.1582 123.702 49.5238 124.263 50.2562 124.688L76.2695 139.799C77.7337 140.65 80.1293 140.65 81.5935 139.799L107.607 124.688C108.339 124.263 108.705 123.702 108.705 123.141Z" fill="#7B97B7"/>
<path fill-rule="evenodd" clip-rule="evenodd" d="M49.671 120.82V123.142C49.671 123.529 49.978 123.93 50.5136 124.242L76.5264 139.353C77.8305 140.111 80.0347 140.11 81.3383 139.353L107.351 124.242C107.886 123.931 108.193 123.531 108.193 123.142V120.666L105.805 119.174L103.985 119.868C103.843 119.923 103.681 119.91 103.548 119.832L81.3383 106.93C80.0336 106.172 77.831 106.172 76.5264 106.93L53.8334 120.113C53.7796 120.145 53.7204 120.166 53.6585 120.176L49.671 120.82ZM78.9318 140.959C77.8826 140.959 76.8317 140.721 76.0144 140.245L50.001 125.135C49.1278 124.627 48.6465 123.919 48.6465 123.142V120.381C48.6465 120.129 48.8296 119.912 49.0779 119.872L53.4036 119.172L76.0144 106.038C77.6501 105.085 80.2145 105.086 81.8509 106.038L103.85 118.817L105.679 118.12C105.827 118.063 105.995 118.079 106.131 118.164L108.975 119.941C109.126 120.035 109.218 120.201 109.218 120.379V123.142C109.218 123.919 108.737 124.627 107.864 125.135L81.8509 140.245C81.0324 140.721 79.9816 140.959 78.9318 140.959Z" fill="#33475C"/>
<path fill-rule="evenodd" clip-rule="evenodd" d="M50.2563 121.927C48.7922 121.077 48.7922 119.685 50.2563 118.835L76.2697 103.723C77.7333 102.872 80.1294 102.872 81.5936 103.723L107.607 118.835C109.071 119.685 109.071 121.077 107.607 121.927L81.5936 137.038C80.1294 137.889 77.7339 137.889 76.2697 137.038L50.2563 121.927Z" fill="#98ACC3"/>
<path fill-rule="evenodd" clip-rule="evenodd" d="M78.9318 103.601C78.0553 103.601 77.1787 103.79 76.5264 104.169L50.5136 119.281C49.978 119.592 49.671 119.993 49.671 120.38C49.671 120.769 49.978 121.171 50.5136 121.482L76.5264 136.592C77.83 137.351 80.0347 137.35 81.3383 136.592L107.351 121.482C107.887 121.171 108.193 120.769 108.193 120.38C108.193 119.993 107.887 119.592 107.351 119.281L81.3383 104.169C80.686 103.79 79.8094 103.601 78.9318 103.601ZM78.9318 138.199C77.882 138.199 76.8317 137.961 76.0138 137.485L50.001 122.374C49.1278 121.866 48.6465 121.159 48.6465 120.38C48.6465 119.603 49.1278 118.895 50.001 118.388L76.0138 103.277C77.6501 102.325 80.2145 102.325 81.8503 103.277L107.864 118.389C108.736 118.895 109.217 119.603 109.217 120.38C109.217 121.159 108.737 121.866 107.864 122.374L81.8503 137.485C81.0319 137.96 79.9816 138.199 78.9318 138.199Z" fill="#33475C"/>
<path fill-rule="evenodd" clip-rule="evenodd" d="M78.9332 121.573C78.4009 121.573 77.884 121.295 77.5995 120.798C77.1763 120.058 77.4295 119.113 78.1652 118.687L93.557 109.778C94.2949 109.351 95.2328 109.607 95.656 110.347C96.0792 111.086 95.8254 112.032 95.0903 112.458L79.6979 121.367C79.4567 121.507 79.193 121.573 78.9332 121.573Z" fill="#FF7A53"/>
<path fill-rule="evenodd" clip-rule="evenodd" d="M94.3218 110.088C94.1486 110.088 93.9737 110.131 93.8126 110.225L78.4202 119.134C77.9307 119.417 77.7619 120.048 78.0436 120.541C78.315 121.014 78.9673 121.197 79.4415 120.92L94.8349 112.011C95.3244 111.728 95.4933 111.097 95.2115 110.604C95.0224 110.273 94.677 110.088 94.3218 110.088ZM78.9333 122.089C78.2009 122.089 77.5196 121.693 77.1556 121.055C76.882 120.578 76.8113 120.022 76.9533 119.49C77.0953 118.959 77.4357 118.515 77.9099 118.24L93.3022 109.331C94.2796 108.767 95.5355 109.103 96.1001 110.09C96.6631 111.075 96.3249 112.338 95.3453 112.905L79.9529 121.814C79.6438 121.993 79.2907 122.089 78.9333 122.089Z" fill="#33475C"/>
<path fill-rule="evenodd" clip-rule="evenodd" d="M78.9319 117.133C75.4844 117.133 75.3457 120.027 75.3457 120.027C75.3457 120.562 75.6949 121.097 76.3927 121.502C77.7895 122.313 80.0743 122.313 81.4705 121.502C82.1689 121.097 82.5181 120.562 82.5181 120.027C82.5181 120.027 82.3794 117.133 78.9319 117.133Z" fill="#F6C364"/>
<path fill-rule="evenodd" clip-rule="evenodd" d="M78.9318 117.649C76.0818 117.649 75.8718 119.808 75.857 120.055C75.8581 120.388 76.1459 120.763 76.6491 121.056C77.8869 121.776 79.9771 121.774 81.2149 121.056C81.7176 120.763 82.0054 120.388 82.0054 120.027C81.9917 119.808 81.7817 117.649 78.9318 117.649ZM78.9318 122.632C77.9264 122.632 76.9205 122.404 76.1371 121.948C75.2968 121.46 74.833 120.778 74.833 120.027C74.8352 119.969 75.0413 116.618 78.9318 116.618C82.8233 116.618 83.0283 119.969 83.0294 120.002C83.0305 120.777 82.5678 121.46 81.7275 121.948C80.9441 122.404 79.9371 122.632 78.9318 122.632Z" fill="#33475C"/>
<path fill-rule="evenodd" clip-rule="evenodd" d="M99.6775 137.52C99.8743 138.295 99.8623 139.386 101.081 139.739C101.081 139.739 105.786 140.18 105.461 138.01C105.461 138.01 105.045 137.797 104.722 135.905C104.523 134.736 99.1239 135.342 99.6775 137.52Z" fill="#F6C364"/>
<path fill-rule="evenodd" clip-rule="evenodd" d="M103.251 135.829C102.557 135.829 101.625 135.964 100.882 136.356C100.026 136.81 100.137 137.248 100.174 137.392C100.209 137.529 100.238 137.674 100.267 137.824C100.415 138.576 100.54 139.046 101.223 139.244C102.233 139.328 104.211 139.254 104.806 138.621C104.91 138.511 104.961 138.389 104.965 138.239C104.716 137.924 104.438 137.281 104.217 135.992C104.127 135.899 103.751 135.829 103.251 135.829ZM102.037 140.295C101.528 140.295 101.143 140.263 101.033 140.253C99.6219 139.853 99.4053 138.752 99.2622 138.024C99.2365 137.894 99.2113 137.767 99.1811 137.648C99.0194 137.012 99.2162 136.394 99.7348 135.91C100.803 134.915 103.185 134.564 104.381 134.971C104.997 135.181 105.182 135.548 105.228 135.817C105.477 137.282 105.771 137.602 105.774 137.606C105.922 137.681 105.943 137.768 105.968 137.934C106.049 138.471 105.903 138.953 105.55 139.329C104.782 140.148 103.125 140.295 102.037 140.295Z" fill="#33475C"/>
<path fill-rule="evenodd" clip-rule="evenodd" d="M100.76 138.334C100.76 138.334 102.548 136.297 105.461 138.01C108.375 139.723 110.376 140.057 110.376 140.057C110.376 140.057 110.661 145.206 106.819 145.383C106.819 145.383 104.557 144.878 102.076 142.344C99.5946 139.81 100.76 138.334 100.76 138.334Z" fill="#F6C364"/>
<path fill-rule="evenodd" clip-rule="evenodd" d="M101.157 138.66C101.065 138.805 100.448 139.948 102.44 141.982C104.566 144.151 106.504 144.764 106.868 144.864C107.65 144.813 108.265 144.526 108.748 143.99C109.691 142.944 109.845 141.233 109.865 140.472C109.11 140.282 107.411 139.754 105.203 138.455C102.819 137.054 101.339 138.47 101.157 138.66ZM106.818 145.898C106.781 145.898 106.743 145.894 106.707 145.886C106.609 145.864 104.269 145.317 101.71 142.705C98.9425 139.88 100.298 138.089 100.357 138.014C100.363 138.007 100.368 138 100.374 137.993C100.396 137.969 102.479 135.659 105.72 137.565C108.501 139.2 110.441 139.545 110.46 139.549C110.695 139.589 110.874 139.788 110.887 140.029C110.893 140.149 111.032 142.985 109.511 144.679C108.829 145.437 107.932 145.848 106.841 145.897C106.834 145.898 106.826 145.898 106.818 145.898Z" fill="#33475C"/>
</svg>
